<?xml version="1.0" encoding="UTF-8"?>
<svg width="19px" height="19px" viewBox="0 0 19 19" version="1.1" xmlns="http://www.w3.org/2000/svg" xmlns:xlink="http://www.w3.org/1999/xlink">
    <!-- Generator: Sketch 49 (51002) - http://www.bohemiancoding.com/sketch -->
    <title>添加 </title>
    <desc>Created with Sketch.</desc>
    <defs></defs>
    <g id="Page-1" stroke="none" stroke-width="1" fill="none" fill-rule="evenodd">
        <g id="添加-" fill="#676E83" fill-rule="nonzero">
            <path d="M17.6896552,9.5 C17.6896552,4.97697836 14.0230221,1.31034483 9.5,1.31034483 C4.97697827,1.31034483 1.31034483,4.97697836 1.31034483,9.5 C1.31034483,14.0230216 4.97697827,17.6896552 9.5,17.6896552 C14.0230221,17.6896552 17.6896552,14.0230216 17.6896552,9.5 Z M10.1551724,8.84482758 L10.1551724,4.91436418 C10.1551724,4.54993056 9.8618419,4.25862068 9.5,4.25862068 C9.13563568,4.25862068 8.84482758,4.55220705 8.84482758,4.91436418 L8.84482758,8.84482758 L4.91436408,8.84482758 C4.54993065,8.84482758 4.25862068,9.13815827 4.25862068,9.5 C4.25862068,9.86436445 4.55220705,10.1551724 4.91436408,10.1551724 L8.84482758,10.1551724 L8.84482758,14.0856358 C8.84482758,14.4500694 9.1381581,14.7413793 9.5,14.7413793 C9.86436432,14.7413793 10.1551724,14.447793 10.1551724,14.0856358 L10.1551724,10.1551724 L14.0856369,10.1551724 C14.45007,10.1551724 14.7413793,9.86184173 14.7413793,9.5 C14.7413793,9.13563555 14.4477933,8.84482758 14.0856369,8.84482758 L10.1551724,8.84482758 Z M0,9.5 C0,4.25329489 4.2532948,0 9.5,0 C14.7467059,0 19,4.25329489 19,9.5 C19,14.7467051 14.7467059,19 9.5,19 C4.2532948,19 0,14.7467051 0,9.5 Z" id="Shape"></path>
        </g>
    </g>
</svg>