<?xml version="1.0" encoding="UTF-8"?>
<svg width="20px" height="19px" viewBox="0 0 20 19" version="1.1" xmlns="http://www.w3.org/2000/svg" xmlns:xlink="http://www.w3.org/1999/xlink">
    <!-- Generator: Sketch 49 (51002) - http://www.bohemiancoding.com/sketch -->
    <title>分享</title>
    <desc>Created with Sketch.</desc>
    <defs></defs>
    <g id="Page-1" stroke="none" stroke-width="1" fill="none" fill-rule="evenodd">
        <g id="分享" fill="#FFFFFF" fill-rule="nonzero">
            <path d="M17.4637937,12.1966246 L17.4637937,16.2376983 C17.4637937,16.9331029 16.8780707,17.5164701 16.1883048,17.5164701 L2.70896888,17.5396503 C2.01920298,17.5396503 1.45660062,16.9755998 1.45660062,16.2801952 L1.47972127,2.76616511 C1.47972127,2.07462383 2.06544427,1.48739325 2.75521017,1.48739325 L10.2116181,1.48739325 L10.2116181,0 L2.75521017,0 C1.17915289,0 0,1.59943066 0,3.02887353 L0,16.2801952 C0,17.7791785 1.21383385,19 2.71282232,19 L15.9301243,19 C17.510035,19 18.9473684,17.6825946 18.9473684,16.2376983 L18.9473684,12.1966246 L17.4637937,12.1966246 Z M14.2696677,1.05555556 L20,6.47507352 L14.2696677,11.8908436 L14.2696677,8.79504698 C14.2696677,8.79504698 8.58301777,8.19912488 5.26315789,12.6666667 C5.26315789,12.6666667 6.30756357,4.15135213 14.2696677,4.15135213 L14.2696677,1.05555556 Z" id="Shape"></path>
        </g>
    </g>
</svg>