<?xml version="1.0" standalone="no"?><!DOCTYPE svg PUBLIC "-//W3C//DTD SVG 1.1//EN" "http://www.w3.org/Graphics/SVG/1.1/DTD/svg11.dtd"><svg t="1527231506400" class="icon" style="" viewBox="0 0 1024 1024" version="1.1" xmlns="http://www.w3.org/2000/svg" p-id="3931" xmlns:xlink="http://www.w3.org/1999/xlink" width="25" height="25"><defs><style type="text/css"></style></defs><path d="M755.2 448 339.2 448 339.2 339.2c0-95.36 77.44-172.8 172.8-172.8s172.8 77.44 172.8 172.8l0 37.12c0 10.88 8.32 19.2 19.2 19.2s19.2-8.32 19.2-19.2L723.2 339.2c0-116.48-94.72-211.2-211.2-211.2S300.8 222.72 300.8 339.2l0 108.8-32 0c-42.24 0-76.8 34.56-76.8 76.8l0 294.4c0 42.24 34.56 76.8 76.8 76.8l486.4 0c42.24 0 76.8-34.56 76.8-76.8L832 524.8C832 482.56 797.44 448 755.2 448zM793.6 819.2c0 21.12-17.28 38.4-38.4 38.4L268.8 857.6c-21.12 0-38.4-17.28-38.4-38.4L230.4 524.8c0-21.12 17.28-38.4 38.4-38.4l486.4 0c21.12 0 38.4 17.28 38.4 38.4L793.6 819.2z" p-id="3932" fill="#9B9B9B"></path><path d="M531.2 659.2l0-44.8c0-10.88-8.32-19.2-19.2-19.2s-19.2 8.32-19.2 19.2l0 44.8c-7.68 5.76-12.8 14.72-12.8 25.6 0 17.92 14.08 32 32 32s32-14.08 32-32C544 674.56 538.88 664.96 531.2 659.2z" p-id="3933" fill="#9B9B9B"></path></svg>