<?xml version="1.0" encoding="UTF-8"?>
<svg width="18px" height="18px" viewBox="0 0 18 18" version="1.1" xmlns="http://www.w3.org/2000/svg" xmlns:xlink="http://www.w3.org/1999/xlink">
    <!-- Generator: Sketch 49 (51002) - http://www.bohemiancoding.com/sketch -->
    <title>收藏-3</title>
    <desc>Created with Sketch.</desc>
    <defs></defs>
    <g id="Page-1" stroke="none" stroke-width="1" fill="none" fill-rule="evenodd">
        <g id="收藏-3" transform="translate(1.000000, 1.000000)" fill-rule="nonzero" stroke="#FFFFFF" stroke-width="1.5">
            <path d="M15.9741167,6.02989067 C15.7867536,5.52726264 15.3636974,5.15079119 14.8447779,5.02490889 L11.4767498,4.11037547 L9.20807809,0.783885786 C8.94966047,0.336933569 8.49103092,0.0444752941 7.97879783,0 C7.45229897,0.0263189347 6.98154007,0.338057717 6.74951756,0.81403524 L4.87061763,3.82898057 L2.3520922,4.60281654 L1.12281193,5.02490889 C0.643578521,5.1318022 0.245247437,5.46496984 0.0534380383,5.91934267 C-0.0779850607,6.44945374 0.0358851405,7.01089506 0.363256643,7.44691497 L2.56196932,10.2508141 L2.44203954,14.2707412 C2.34598805,14.7552769 2.44675807,15.2583146 2.7218757,15.6676659 C2.92004325,15.8888691 3.20554686,16.0103319 3.50141928,15.9993099 C3.82761709,15.9844032 4.14881074,15.913007 4.45086339,15.7882637 L7.69896167,14.4616878 L11.3868025,15.8385128 C11.6024727,15.913242 11.8283538,15.9539237 12.0564104,15.9591106 C12.5161413,15.9591106 13.2856907,15.7480645 13.3456556,14.3310401 L13.1457726,10.7131057 L15.5343741,7.48711424 C15.9042813,7.10004654 16.0677333,6.55839735 15.9741167,6.02989067" id="Shape"></path>
        </g>
    </g>
</svg>