<?xml version="1.0" encoding="UTF-8"?>
<svg width="17px" height="20px" viewBox="0 0 17 20" version="1.1" xmlns="http://www.w3.org/2000/svg" xmlns:xlink="http://www.w3.org/1999/xlink">
    <!-- Generator: Sketch 49 (51002) - http://www.bohemiancoding.com/sketch -->
    <title>Group</title>
    <desc>Created with Sketch.</desc>
    <defs></defs>
    <g id="Symbols" stroke="none" stroke-width="1" fill="none" fill-rule="evenodd">
        <g id="Group">
            <rect id="Rectangle" fill="#FFFFFF" x="6" y="4.99537465" width="5" height="9.99074931"></rect>
            <path d="M9.14440433,2.68501388 L9.14440433,1.31128585 L11.7527076,1.31128585 C12.1209386,1.31128585 12.3971119,0.999074931 12.3971119,0.655642923 C12.3971119,0.280989824 12.0902527,0 11.7527076,0 L5.2166065,0 C4.84837545,0 4.57220217,0.312210916 4.57220217,0.655642923 C4.57220217,1.03029602 4.87906137,1.31128585 5.2166065,1.31128585 L7.82490975,1.31128585 L7.82490975,2.68501388 C3.46750903,3.02844588 0,6.77497687 0,11.3332562 C-2.72545724e-16,16.1100833 3.80505415,19.9814986 8.5,19.9814986 C13.1949458,19.9814986 17,16.1100833 17,11.3332562 C17,6.77497687 13.532491,3.02844588 9.14440433,2.68501388 Z M8.5,13.3314061 C7.42599278,13.3314061 6.53610108,12.4259944 6.53610108,11.3332562 C6.53610108,10.4590657 7.08844765,9.74098057 7.85559567,9.45999075 L7.85559567,5.99444958 C7.85559567,5.61979648 8.16245487,5.33880666 8.5,5.33880666 C8.86823105,5.33880666 9.14440433,5.65101758 9.14440433,5.99444958 L9.14440433,9.45999075 C9.91155235,9.74098057 10.4638989,10.4590657 10.4638989,11.3332562 C10.4638989,12.4259944 9.57400722,13.3314061 8.5,13.3314061 Z" id="Shape" fill="#50E3C2" fill-rule="nonzero"></path>
        </g>
    </g>
</svg>