<?xml version="1.0" encoding="UTF-8"?>
<svg width="50px" height="50px" viewBox="0 0 50 50" version="1.1" xmlns="http://www.w3.org/2000/svg" xmlns:xlink="http://www.w3.org/1999/xlink">
    <!-- Generator: Sketch 49 (51002) - http://www.bohemiancoding.com/sketch -->
    <title>Rectangle 24</title>
    <desc>Created with Sketch.</desc>
    <defs></defs>
    <g id="Page-1" stroke="none" stroke-width="1" fill="none" fill-rule="evenodd">
        <g id="压缩文件-copy-4" fill="#545D72" fill-rule="nonzero">
            <path d="M45.9374915,0 L18.749772,0 L18.749772,4.37501281 L23.1248119,4.37501281 L23.1248119,8.74991167 L18.749772,8.74991167 L18.749772,13.1256084 L23.1248119,13.1256084 L23.1248119,17.5005072 L18.749772,17.5005072 L18.749772,21.8751211 L23.1248119,21.8751211 L23.1248119,34.3750356 C23.1248119,35.0001026 22.5003761,35.313206 22.1879588,35.313206 L15.6248005,35.313206 C14.9997379,35.313206 14.6879473,34.688196 14.6879474,34.3750356 L14.6879474,26.2501909 L19.0629873,26.2501909 L19.0629873,21.8751211 L14.6879474,21.8751211 L14.6879474,17.5005072 L19.0629873,17.5005072 L19.0629873,13.1256084 L14.6879474,13.1256084 L14.6879474,8.74991167 L19.0629873,8.74991167 L19.0629873,4.37501281 L14.6879474,4.37501281 L14.6879474,0 L3.74997719,0 C1.87501708,0 0,1.56249644 0,3.74994587 L0,46.2499972 C0,48.1249701 1.56254272,50 3.74997719,50 L46.2500228,50 C48.1249829,50 50,48.4381304 50,46.2499972 L50,3.74994587 C49.3749373,1.87502991 47.8125655,1.18714825e-15 45.9374915,0 Z" id="Shape"></path>
        </g>
    </g>
</svg>