<?xml version="1.0" encoding="UTF-8"?>
<svg width="160px" height="160px" viewBox="0 0 160 160" version="1.1" xmlns="http://www.w3.org/2000/svg" xmlns:xlink="http://www.w3.org/1999/xlink">
    <!-- Generator: Sketch 49 (51002) - http://www.bohemiancoding.com/sketch -->
    <title>Rectangle 26</title>
    <desc>Created with Sketch.</desc>
    <defs></defs>
    <g id="Page-1" stroke="none" stroke-width="1" fill="none" fill-rule="evenodd">
        <g id="压缩文件-copy-3" fill="#545D72" fill-rule="nonzero">
            <path d="M146.999973,0 L59.9992705,0 L59.9992705,14.000041 L73.9993982,14.000041 L73.9993982,27.9997174 L59.9992705,27.9997174 L59.9992705,42.0019468 L73.9993982,42.0019468 L73.9993982,56.0016232 L59.9992705,56.0016232 L59.9992705,70.0003876 L73.9993982,70.0003876 L73.9993982,110.000114 C73.9993982,112.000328 72.0012037,113.002259 71.001468,113.002259 L49.9993617,113.002259 C47.9991611,113.002259 47.0014315,111.002227 47.0014317,110.000114 L47.0014317,84.0006109 L61.0015592,84.0006109 L61.0015592,70.0003876 L47.0014317,70.0003876 L47.0014317,56.0016232 L61.0015592,56.0016232 L61.0015592,42.0019468 L47.0014317,42.0019468 L47.0014317,27.9997174 L61.0015592,27.9997174 L61.0015592,14.000041 L47.0014317,14.000041 L47.0014317,0 L11.999927,0 C6.00005467,0 0,4.99998859 0,11.9998268 L0,147.999991 C0,153.999904 5.00013671,160 11.999927,160 L148.000073,160 C153.999945,160 160,155.002017 160,147.999991 L160,11.9998268 C157.999799,6.0000957 153.00021,3.79887441e-15 146.999973,0 Z" id="Shape"></path>
        </g>
    </g>
</svg>