<?xml version="1.0" encoding="UTF-8"?>
<svg width="30px" height="30px" viewBox="0 0 30 30" version="1.1" xmlns="http://www.w3.org/2000/svg" xmlns:xlink="http://www.w3.org/1999/xlink">
    <!-- Generator: Sketch 49 (51002) - http://www.bohemiancoding.com/sketch -->
    <title>Rectangle 25</title>
    <desc>Created with Sketch.</desc>
    <defs></defs>
    <g id="Page-1" stroke="none" stroke-width="1" fill="none" fill-rule="evenodd">
        <g id="压缩文件-copy-3" fill="#B4B6BF" fill-rule="nonzero">
            <path d="M18.3749966,0 L7.49990881,0 L7.49990881,1.75000512 L9.24992478,1.75000512 L9.24992478,3.49996467 L7.49990881,3.49996467 L7.49990881,5.25024335 L9.24992478,5.25024335 L9.24992478,7.0002029 L7.49990881,7.0002029 L7.49990881,8.75004845 L9.24992478,8.75004845 L9.24992478,13.7500143 C9.24992478,14.000041 9.00015046,14.1252824 8.8751835,14.1252824 L6.24992021,14.1252824 C5.99989514,14.1252824 5.87517893,13.8752784 5.87517896,13.7500143 L5.87517896,10.5000764 L7.6251949,10.5000764 L7.6251949,8.75004845 L5.87517896,8.75004845 L5.87517896,7.0002029 L7.6251949,7.0002029 L7.6251949,5.25024335 L5.87517896,5.25024335 L5.87517896,3.49996467 L7.6251949,3.49996467 L7.6251949,1.75000512 L5.87517896,1.75000512 L5.87517896,0 L1.49999088,0 C0.750006833,0 0,0.624998574 0,1.49997835 L0,18.4999989 C0,19.249988 0.625017089,20 1.49999088,20 L18.5000091,20 C19.2499932,20 20,19.3752522 20,18.4999989 L20,1.49997835 C19.7499749,0.750011963 19.1250262,4.74859301e-16 18.3749966,0 Z" id="Shape"></path>
        </g>
    </g>
</svg>