<?xml version="1.0" encoding="UTF-8"?>
<svg width="31px" height="22px" viewBox="0 0 31 22" version="1.1" xmlns="http://www.w3.org/2000/svg" xmlns:xlink="http://www.w3.org/1999/xlink">
    <!-- Generator: Sketch 49 (51002) - http://www.bohemiancoding.com/sketch -->
    <title>Group 37</title>
    <desc>Created with Sketch.</desc>
    <defs></defs>
    <g id="Symbols" stroke="none" stroke-width="1" fill="none" fill-rule="evenodd">
        <g id="Group-37" transform="translate(1.000000, 1.000000)">
            <rect id="Rectangle-7" stroke="#FFFFFF" stroke-width="2" x="0" y="0" width="29" height="20"></rect>
            <path d="M4.83333333,2.54166667 L9.77083333,2.54166667 L9.77083333,4.95833333 L4.83333333,4.95833333 L4.83333333,8.75 L2.41666667,8.75 L2.41666667,2.5 L4.83333333,2.5 L4.83333333,2.54166667 Z" id="Combined-Shape" fill="#FFFFFF"></path>
            <path d="M4.83333333,11.2916667 L9.77083333,11.2916667 L9.77083333,13.7083333 L4.83333333,13.7083333 L4.83333333,17.5 L2.41666667,17.5 L2.41666667,11.25 L4.83333333,11.25 L4.83333333,11.2916667 Z" id="Combined-Shape-Copy-2" fill="#FFFFFF" transform="translate(6.093750, 14.375000) scale(1, -1) translate(-6.093750, -14.375000) "></path>
            <path d="M21.6458333,2.54166667 L26.5833333,2.54166667 L26.5833333,4.95833333 L21.6458333,4.95833333 L21.6458333,8.75 L19.2291667,8.75 L19.2291667,2.5 L21.6458333,2.5 L21.6458333,2.54166667 Z" id="Combined-Shape-Copy" fill="#FFFFFF" transform="translate(22.906250, 5.625000) scale(-1, 1) translate(-22.906250, -5.625000) "></path>
            <path d="M21.6458333,11.2916667 L26.5833333,11.2916667 L26.5833333,13.7083333 L21.6458333,13.7083333 L21.6458333,17.5 L19.2291667,17.5 L19.2291667,11.25 L21.6458333,11.25 L21.6458333,11.2916667 Z" id="Combined-Shape-Copy-3" fill="#FFFFFF" transform="translate(22.906250, 14.375000) scale(-1, -1) translate(-22.906250, -14.375000) "></path>
        </g>
    </g>
</svg>