<?xml version="1.0" encoding="UTF-8"?>
<svg width="30px" height="27px" viewBox="0 0 30 27" version="1.1" xmlns="http://www.w3.org/2000/svg" xmlns:xlink="http://www.w3.org/1999/xlink">
    <!-- Generator: Sketch 49 (51002) - http://www.bohemiancoding.com/sketch -->
    <title>图片-2</title>
    <desc>Created with Sketch.</desc>
    <defs></defs>
    <g id="Symbols" stroke="none" stroke-width="1" fill="none" fill-rule="evenodd">
        <g id="图片-2" fill="#FFFFFF" fill-rule="nonzero">
            <path d="M25.968,26.9200001 L4.03299999,26.9200001 C1.80999999,26.9200001 0,25.2967241 0,23.3019521 L0,3.61894533 C0,1.62417333 1.80999999,0 4.03299999,0 L25.968,0 C28.191,0 30,1.62417333 30,3.61894533 L30,23.3019521 C30,25.2967241 28.191,26.9200001 25.968,26.9200001 Z M3.891,1.81620268 C2.862,1.81620268 2.025,2.56727068 2.025,3.49062669 L2.025,23.4293734 C2.025,24.3518321 2.862,25.1029001 3.891,25.1029001 L26.111,25.1029001 C27.139,25.1029001 27.976,24.3518321 27.976,23.4293734 L27.976,3.49152401 C27.976,2.56816801 27.139,1.81710001 26.111,1.81710001 L3.891,1.81710001 L3.891,1.81620268 Z" id="Shape"></path>
            <path d="M14.6682728,18.8440001 C14.4082785,18.8440001 14.1472842,18.764936 13.9392888,18.606808 L8.16741522,14.1989891 C7.89242123,13.990157 7.46743056,13.9970321 7.20043641,14.2144582 L1.85055364,18.5853232 C1.41256323,18.9428301 0.717578449,18.927361 0.301587583,18.5518069 C-0.115403281,18.1753935 -0.0974036752,17.5781164 0.33958676,17.2197501 L5.83846628,13.0319355 C6.36745468,12.5996616 7.06243946,12.3555944 7.79142349,12.3452817 C8.52140749,12.3341096 9.22439211,12.5584108 9.77038014,12.9743563 L14.5812747,16.5769253 L21.8121163,9.79718594 C22.3461046,9.28670741 23.1110879,8.98763917 23.9110703,8.97388892 C24.7100528,8.95927925 25.4870358,9.23342515 26.0470235,9.72413768 L29.6869438,12.5807549 C30.1109345,12.9520121 30.1029347,13.5484297 29.6709441,13.9128117 C29.2369536,14.2763343 28.5439688,14.2685998 28.1209781,13.8973427 L24.6060551,10.8104085 C24.4670581,10.6875155 24.2810622,10.6222018 24.0820666,10.62478 C23.8830709,10.6290769 23.7000749,10.7004064 23.5660779,10.8275964 L15.480255,18.5337597 C15.2662597,18.7382949 14.9672662,18.8440001 14.6682728,18.8440001 Z" id="Shape"></path>
            <path d="M10.000512,10.768 C7.79587647,10.768 6,9.15721314 6,7.17866669 C6,5.19920082 7.79587644,3.58933334 10.000512,3.58933334 C12.206172,3.58933334 13.9999996,5.19920085 13.9999996,7.17866669 C14.001024,9.15721314 12.2071965,10.768 10.000512,10.768 Z M10.0015365,5.32515845 C8.86233816,5.32515845 7.9341784,6.15721448 7.9341784,7.17866666 C7.9341784,8.20011884 8.86131371,9.03309426 10.0015365,9.03309426 C11.1386858,9.03309426 12.0668456,8.20103823 12.0668456,7.17866666 C12.0668456,6.15721448 11.1397103,5.32515845 10.0015365,5.32515845 Z" id="Shape"></path>
        </g>
    </g>
</svg>