<?xml version="1.0" encoding="UTF-8"?>
<svg width="20px" height="20px" viewBox="0 0 20 20" version="1.1" xmlns="http://www.w3.org/2000/svg" xmlns:xlink="http://www.w3.org/1999/xlink">
    <!-- Generator: Sketch 49 (51002) - http://www.bohemiancoding.com/sketch -->
    <title>公开</title>
    <desc>Created with Sketch.</desc>
    <defs></defs>
    <g id="Page-1" stroke="none" stroke-width="1" fill="none" fill-rule="evenodd">
        <g id="公开" fill="#A2A9BA" fill-rule="nonzero">
            <path d="M10,20 C4.48598131,20 0,15.4898911 0,9.98444791 C0,4.47900469 4.48598131,0 10,0 C15.5140187,0 20,4.47900467 20,9.98444791 C20,15.4898912 15.5140187,20 10,20 Z M10,1.33748057 C5.23364487,1.33748057 1.33956387,5.22550545 1.33956387,9.98444791 C1.33956387,14.7433904 5.23364487,18.6625194 10,18.6625194 C14.7663552,18.6625194 18.6915888,14.7744946 18.6915888,9.98444791 C18.6915888,5.19440127 14.7975078,1.33748057 10,1.33748057 Z" id="Shape"></path>
            <path d="M11.5807906,9.04390293 C11.5807906,9.04390293 9.42670288,9.13719561 9.98154366,10.2567077 L10.5363844,11.3762199 C10.5363844,11.3762199 11.4828775,11.7804881 11.5807906,12.495732 C11.6787037,13.2109759 11.5807906,13.8018295 11.5807906,14.5481709 C11.5807906,15.2945123 10.8301236,15.6676831 10.7648483,16.4762196 C10.6995729,17.2847562 10.7648483,18 10.7648483,18 C10.7648483,18 11.8418921,17.222561 12.3314575,16.7560976 C12.8536606,16.2585367 13.8980667,15.6676831 14.3223568,15.107927 C14.7466468,14.5481709 17.0639229,14.330488 16.9986475,12.993293 C16.9333721,11.6560979 16.6396329,8.48414686 11.5807906,9.04390293 Z M10.4058337,1.02073263 C10.4058337,1.02073263 11.4502398,2.76219596 10.8301236,3.66402516 C10.2100075,4.56585437 10.2100075,4.90792754 9.88363058,5.77865921 C9.55725365,6.61829331 7.76218058,5.15670802 7.30525286,6.71158597 C6.84832517,8.26646395 6.84832517,9.04390291 6.13029595,8.54634198 C5.41226673,8.04878105 5.67336825,5.77865921 4.43313593,6.24512258 C3.19290362,6.74268353 1.16936669,8.48414684 1.00617823,7.36463472 C0.842989768,6.2451226 3.91093285,0.616464356 10.4058337,1.02073263 Z" id="Shape"></path>
        </g>
    </g>
</svg>