<?xml version="1.0" encoding="UTF-8"?>
<svg width="20px" height="17px" viewBox="0 0 20 17" version="1.1" xmlns="http://www.w3.org/2000/svg" xmlns:xlink="http://www.w3.org/1999/xlink">
    <!-- Generator: Sketch 49 (51002) - http://www.bohemiancoding.com/sketch -->
    <title>通知</title>
    <desc>Created with Sketch.</desc>
    <defs></defs>
    <g id="Page-1" stroke="none" stroke-width="1" fill="none" fill-rule="evenodd">
        <g id="通知" fill="#A2A9BA" fill-rule="nonzero">
            <path d="M19.1177234,4.51508484 C18.5575537,3.50489894 17.7555693,2.65448747 16.7985034,2.05596157 C16.6186796,1.94409981 16.3860156,2.00496833 16.2783339,2.1936695 C16.1708816,2.38213033 16.2296625,2.62628171 16.4097364,2.73890813 C17.2564109,3.26854731 17.9660134,4.02086126 18.4615032,4.91431331 C18.9715423,5.8371946 19.241205,6.89059582 19.241205,7.96029567 C19.241205,9.04166233 18.9670816,10.1028196 18.4481212,11.0290873 C17.9457527,11.9279358 17.2257698,12.681801 16.3793662,13.2047329 C16.1699019,13.2047329 16,13.3828596 16,13.6023664 C16,13.8219388 16.1699019,14 16.3793662,14 C16.5090386,14 16.6367516,13.9640382 16.7493317,13.8954355 C17.7209886,13.2994876 18.5348334,12.4472628 19.1024237,11.4313964 C19.6897743,10.3834353 20,9.1832811 20,7.96029571 C19.9999583,6.75076865 19.6949437,5.55941915 19.1177234,4.51508484 Z" id="Shape"></path>
            <path d="M17,8.46718567 C17,7.76723412 16.7970014,7.07836521 16.4131084,6.47592399 C16.0419597,5.8926913 15.5089864,5.40114044 14.8717478,5.05457879 C14.6698463,4.94545399 14.4093116,5.00493019 14.2892677,5.18869807 C14.1689904,5.37216813 14.2348127,5.60986023 14.4364108,5.71951683 C14.9500343,5.99877422 15.3792792,6.3944952 15.6782569,6.86434871 C15.9872012,7.34930528 16.1503797,7.90356566 16.1503797,8.46720694 C16.1503797,9.03557058 15.9844703,9.59414917 15.6705076,10.0826156 C15.3659981,10.5557237 14.9301242,10.9522318 14.4248102,11.2256819 C14.1902776,11.2256819 14,11.3990904 14,11.6128516 C14,11.8265915 14.1902776,12 14.4248102,12 C14.571393,12 14.7149415,11.9641781 14.8388367,11.8976397 C15.484338,11.5538434 16.0253408,11.0618245 16.4033984,10.4740397 C16.793687,9.86683355 17,9.17294446 17,8.46718567 Z" id="Shape"></path>
            <path d="M11.7421774,0.541654291 C11.5907326,0.300519999 11.3980192,0.188985854 11.2116291,0.104483512 C10.8451943,-0.0622797449 10.3916867,-0.0288374321 9.89945759,0.200641368 C9.59020009,0.344609172 9.356732,0.524148634 9.31434625,0.557590947 L4.78628551,3.95826138 L4.77357202,3.96837028 C3.94752983,4.64667535 2.72701173,4.59196177 2.71563884,4.59146865 L2.69472524,4.59090828 C1.34313969,4.59090828 0.198321628,5.61078664 0.0307224233,6.96268976 L0,7.27555019 L0,9.73548759 L0.0296499248,10.0398754 L0.0307000646,10.048886 C0.198276911,11.4007442 1.34307264,12.4200847 2.69470288,12.4200847 L2.69919395,12.4200847 C3.77222208,12.4073757 4.72986797,13.0213738 4.76534957,13.0447745 L8.59684917,15.9519467 L9.32786411,16.4629506 C9.42447775,16.531987 10.1065379,17 10.7937818,17 C10.9346581,17 11.0738809,16.9803425 11.2099757,16.9341464 C11.9142677,16.6940656 11.9870184,16.0337817 12,15.4340616 L12,15.4298253 L12,1.58549366 L11.9989275,1.5631689 C11.9727632,1.10365095 11.8914772,0.77913503 11.7421774,0.541654291 Z" id="Shape"></path>
        </g>
    </g>
</svg>