<?xml version="1.0" standalone="no"?><!DOCTYPE svg PUBLIC "-//W3C//DTD SVG 1.1//EN" "http://www.w3.org/Graphics/SVG/1.1/DTD/svg11.dtd"><svg t="1523863326075" class="icon" style="" viewBox="0 0 1090 1024" version="1.1" xmlns="http://www.w3.org/2000/svg" p-id="2055" xmlns:xlink="http://www.w3.org/1999/xlink" width="12" height="12"><defs><style type="text/css"></style></defs><path d="M977.794416 213.367356c-50.760702 64.906649-190.072677 244.087869-300.70082 386.471196L536.659464 449.999061c127.075562-118.80286 284.31989-265.712143 341.14864-318.331054C978.935237 38.040198 1067.59266-17.685059 1086.855971 5.085869 1098.891749 17.734051 1066.878772 99.516219 977.794416 213.367356zM652.578776 631.390767c-42.843778 55.140848-79.70816 102.605068-102.288951 131.67384l-166.290409-170.294947c26.946939-25.224042 71.82623-67.19529 123.844402-115.832992L652.578776 631.390767zM525.496216 794.997097l0-0.509753C428.952197 1183.767432 0 959.995042 0 959.995042s179.977928 23.83826 179.977928-152.594724c0-171.037997 165.41438-186.472909 175.560454-187.255619l170.296114 174.404469C525.813499 794.581829 525.496216 794.997097 525.496216 794.997097z" p-id="2056" fill="#7E879E"></path></svg>