<?xml version="1.0" standalone="no"?><!DOCTYPE svg PUBLIC "-//W3C//DTD SVG 1.1//EN" "http://www.w3.org/Graphics/SVG/1.1/DTD/svg11.dtd"><svg t="1523846858310" class="icon" style="" viewBox="0 0 1024 1024" version="1.1" xmlns="http://www.w3.org/2000/svg" p-id="2988" xmlns:xlink="http://www.w3.org/1999/xlink" width="35" height="35"><defs><style type="text/css"></style></defs><path d="M1000.638421 663.212435v244.434506a116.376329 116.376329 0 0 1-232.706117 0v-186.351059A116.376329 116.376329 0 0 1 884.285362 605.035906h69.811836v-197.893283C954.097198 209.016635 757.064928 46.541224 511.955574 46.541224S69.813951 209.063176 69.813951 407.142623V605.035906h69.811835c64.250159 0 116.353059 52.033088 116.353059 116.259976v186.351059a116.376329 116.376329 0 0 1-232.706118 0V407.142623C23.272727 181.184983 242.900761 0 511.955574 0s488.682847 181.115171 488.682847 407.142623V663.212435z m-977.365694 0V605.035906h46.541224v116.353059a23.270612 23.270612 0 0 1-46.541224 0v-58.17653z m46.541224-11.635306v256.069812a69.835106 69.835106 0 0 0 139.62367 0v-186.351059A69.765294 69.765294 0 0 0 139.625786 651.577129H69.813951z m930.82447 11.635306V721.388965a23.270612 23.270612 0 0 1-46.541223 0v-116.353059h46.541223v58.176529z m-46.541223-11.635306h-69.811836c-38.489592 0-69.811835 31.252432-69.811835 69.718753v186.351059a69.835106 69.835106 0 0 0 139.623671 0V651.577129z" p-id="2989" fill="#ffffff"></path></svg>