<?xml version="1.0" encoding="UTF-8"?>
<svg width="20px" height="20px" viewBox="0 0 20 20" version="1.1" xmlns="http://www.w3.org/2000/svg" xmlns:xlink="http://www.w3.org/1999/xlink">
    <!-- Generator: Sketch 49 (51002) - http://www.bohemiancoding.com/sketch -->
    <title>保存-2</title>
    <desc>Created with Sketch.</desc>
    <defs></defs>
    <g id="Symbols" stroke="none" stroke-width="1" fill="none" fill-rule="evenodd">
        <g id="Group-34" transform="translate(-1206.000000, -131.000000)" fill="#FFFFFF" fill-rule="nonzero">
            <g id="Group-26" transform="translate(1195.000000, 124.000000)">
                <g id="保存-2" transform="translate(11.000000, 7.000000)">
                    <path d="M17.1424775,0 L2.85749916,0 C1.27935721,0 0,1.27935721 0,2.85749916 L0,17.1425008 C0,18.7206428 1.27935721,20 2.85749916,20 L17.1425008,20 C18.7206428,20 20,18.7206428 20,17.1425008 L20,2.85749916 C19.9999767,1.27935721 18.7206428,3.3125188e-16 17.1424775,0 Z M14.2419252,1.47581203 L14.2419252,7.09677871 L5.76611667,7.09677871 L5.76611667,1.47581203 L14.2419252,1.47581203 Z M18.5725791,17.1463703 C18.5732084,17.9334249 17.935686,18.5719497 17.1486313,18.5725791 L2.86080915,18.5725791 C2.47878519,18.5725791 2.11806636,18.4257974 1.84790602,18.1556371 C1.57774569,17.8854767 1.42742092,17.5283709 1.42742092,17.1463703 L1.42742092,2.85887444 C1.42884282,2.06813681 2.07007153,1.42777057 2.86080915,1.42742092 L4.29032796,1.42742092 L4.29032796,7.14516981 C4.28916247,7.93236435 4.92635858,8.57142524 5.71355312,8.57259073 L14.288941,8.57259073 C15.078047,8.57259073 15.7178072,7.93420582 15.7178072,7.14516981 L15.7178072,1.42742092 L17.1445055,1.42742092 C17.9340543,1.42826008 18.5734182,2.06899928 18.5725791,2.8585481 L18.5725791,17.1463703 Z" id="Shape"></path>
                    <path d="M11.5,6 C11.7761404,6 12,5.65876697 12,5.23784148 L12,3.76215852 C12,3.34123303 11.7761404,3 11.5,3 C11.2238596,3 11,3.34123303 11,3.76215852 L11,5.23784148 C11,5.65876697 11.2238596,6 11.5,6 Z" id="Shape"></path>
                </g>
            </g>
        </g>
    </g>
</svg>