<?xml version="1.0" encoding="UTF-8"?>
<svg width="16px" height="19px" viewBox="0 0 16 19" version="1.1" xmlns="http://www.w3.org/2000/svg" xmlns:xlink="http://www.w3.org/1999/xlink">
    <!-- Generator: Sketch 49 (51002) - http://www.bohemiancoding.com/sketch -->
    <title>文件-选中</title>
    <desc>Created with Sketch.</desc>
    <defs></defs>
    <g id="Page-1" stroke="none" stroke-width="1" fill="none" fill-rule="evenodd">
        <g id="文件-选中" fill="#FFFFFF" fill-rule="nonzero">
            <path d="M11.4290324,0 L11.4290324,4.75 L16,4.75 L11.4290324,0 Z M10.2858872,0 L2.28588716,0 C1.0235188,0.000231401611 0.000222699495,1.06351341 0,2.37520956 L0,16.6247904 C0.000222699495,17.9364866 1.0235188,18.9997686 2.28588716,19 L13.7137095,19 C14.9762354,19 15.9997773,17.9366503 16,16.6247904 L16,5.93739522 L10.2858872,5.93739522 L10.2858872,0 Z M11.4290324,15.4373952 L4.57177431,15.4373952 L4.57177431,14.25 L11.4290324,14.25 L11.4290324,15.4373952 Z M11.4290324,11.8752096 L4.57177431,11.8752096 L4.57177431,10.6878143 L11.4290324,10.6878143 L11.4290324,11.8752096 Z M11.4290324,7.12479043 L11.4290324,8.31218565 L4.57177431,8.31218565 L4.57177431,7.12479043 L11.4290324,7.12479043 Z" id="Shape"></path>
        </g>
    </g>
</svg>