<?xml version="1.0" encoding="UTF-8"?>
<svg width="20px" height="20px" viewBox="0 0 20 20" version="1.1" xmlns="http://www.w3.org/2000/svg" xmlns:xlink="http://www.w3.org/1999/xlink">
    <!-- Generator: Sketch 49 (51002) - http://www.bohemiancoding.com/sketch -->
    <title>Shape</title>
    <desc>Created with Sketch.</desc>
    <defs></defs>
    <g id="Symbols" stroke="none" stroke-width="1" fill="none" fill-rule="evenodd">
        <g id="Group-34" transform="translate(-1373.000000, -131.000000)" fill="#FFFFFF" fill-rule="nonzero">
            <g transform="translate(0.000000, 109.000000)" id="高速下载">
                <g transform="translate(1363.000000, 15.000000)">
                    <path d="M14.5927932,15.287584 L18.9045416,19.7008209 C19.1971429,19.9992101 19.5863113,20.1634278 19.9998294,20.1634278 C20.414307,20.1634278 20.8034115,19.9988174 21.0956503,19.6997517 L25.4072921,15.2876931 C25.7440512,14.942958 25.7440512,14.3824008 25.4072921,14.0377749 C25.2442004,13.8708296 25.0273134,13.7789672 24.7966525,13.7789672 C24.5659915,13.7789672 24.3491258,13.8708515 24.1860128,14.0377749 L20.8636034,17.4374048 L20.8636034,7.8838213 C20.8636034,7.39633947 20.476226,7 19.9999574,7 C19.5236887,7 19.1364179,7.39649221 19.1364179,7.8838213 L19.1364179,17.4381467 L15.8140725,14.0377749 C15.6509808,13.8708296 15.4340725,13.7789672 15.2034328,13.7789672 C14.9727719,13.7789672 14.7559275,13.8708733 14.5927932,14.0377749 C14.4296588,14.2046765 14.3398507,14.4266519 14.3398507,14.6626794 C14.3398507,14.8987069 14.4297015,15.1206824 14.5927932,15.287584 Z M26.3954584,9.33758243 C25.9191898,9.33758243 25.531919,9.73390007 25.531919,10.2212946 C25.531919,10.7086892 25.9193177,11.1050068 26.3954584,11.1050068 C27.430661,11.1050068 28.2728785,11.9669208 28.2728785,13.0263063 L28.2728785,23.3111452 C28.2728785,24.3705525 27.4306397,25.2324447 26.3954584,25.2324447 L13.6045416,25.2324447 C12.5693177,25.2324447 11.7271215,24.3705307 11.7271215,23.3111452 L11.7271215,13.0263063 C11.7271215,11.966899 12.5692537,11.1050068 13.6045416,11.1050068 C14.0808102,11.1050068 14.468081,10.7086892 14.468081,10.2212946 C14.468081,9.73390007 14.0806823,9.33758243 13.6045416,9.33758243 C11.6169723,9.33758243 10,10.9922844 10,13.0263717 L10,23.3112107 C10,25.3452325 11.6169083,27 13.6045416,27 L26.3954584,27 C28.3830277,27 30,25.345298 30,23.3112107 L30,13.0263717 C30,10.9923281 28.3830917,9.33758243 26.3954584,9.33758243 Z" id="Shape"></path>
                </g>
            </g>
        </g>
    </g>
</svg>