<?xml version="1.0" encoding="UTF-8"?>
<svg width="20px" height="19px" viewBox="0 0 20 19" version="1.1" xmlns="http://www.w3.org/2000/svg" xmlns:xlink="http://www.w3.org/1999/xlink">
    <!-- Generator: Sketch 49 (51002) - http://www.bohemiancoding.com/sketch -->
    <title>分享-3</title>
    <desc>Created with Sketch.</desc>
    <defs></defs>
    <g id="Symbols" stroke="none" stroke-width="1" fill="none" fill-rule="evenodd">
        <g id="Group-34" transform="translate(-1492.000000, -132.000000)" fill="#FFFFFF" fill-rule="nonzero">
            <g transform="translate(0.000000, 109.000000)" id="Group-29">
                <g transform="translate(1482.000000, 15.000000)">
                    <g id="Group-51">
                        <g id="Group-52">
                            <g id="分享-3" transform="translate(10.000000, 8.000000)">
                                <path d="M19.2645077,8.76916059 C18.8704366,8.76916059 18.5506108,9.09612707 18.5506108,9.49899648 L18.5506108,16.7973553 C18.5506108,17.2002247 18.230785,17.5271912 17.8367139,17.5271912 L2.13098223,17.5271912 C1.73691115,17.5271912 1.41708534,17.2002247 1.41708534,16.7973553 L1.41708534,4.39014529 C1.41708534,3.98727589 1.73691115,3.66030941 2.13098223,3.66030941 L7.1282605,3.66030941 C7.1282605,3.66030941 7.1282605,3.66030941 7.1282605,3.66030941 C7.52233159,3.66030941 7.8421574,3.33334294 7.8421574,2.93047353 C7.8421574,2.52760412 7.52233159,2.20063765 7.1282605,2.20063765 C7.1054158,2.20063765 7.08614058,2.21158518 7.06400978,2.21377469 L2.139549,2.21377469 C0.958049634,2.21377469 0,3.19467412 0,4.40474201 L0,16.8090327 C0,18.0191006 0.958049634,19 2.139549,19 L17.850278,19 C19.0317773,19 19.989827,18.0191006 19.989827,16.8090327 L19.989827,9.49899648 L19.9784046,9.49899648 C19.9784046,9.09612707 19.6585788,8.76916059 19.2645077,8.76916059 Z M7.54517629,11.9797086 C7.50234247,12.0738575 7.4745005,12.1760345 7.4745005,12.2862397 C7.4745005,12.6891091 7.7943263,13.0160756 8.18839739,13.0160756 C8.53320959,13.0160756 8.807346,12.7613629 8.87445231,12.4285577 L8.88873025,12.4285577 C9.71685064,8.1020906 13.2163732,4.75944225 17.5597219,4.25731516 L16.0476883,5.80310756 C15.7685546,6.08847339 15.7685546,6.55045951 16.0476883,6.8350955 C16.326822,7.12046133 16.7787187,7.12046133 17.0571385,6.8350955 L19.7906497,4.04055391 C20.0697834,3.75518808 20.0697834,3.29320196 19.7906497,3.00856597 L17.0571385,0.214024373 C16.7780048,-0.0713414576 16.3261081,-0.0713414576 16.0476883,0.214024373 C15.7685546,0.499390203 15.7685546,0.961376317 16.0476883,1.24601231 L17.5540108,2.78596602 C12.5774355,3.29247213 8.56105157,7.06791315 7.54517629,11.9797086 Z" id="Shape"></path>
                            </g>
                        </g>
                    </g>
                </g>
            </g>
        </g>
    </g>
</svg>