<?xml version="1.0" encoding="UTF-8"?>
<svg width="18px" height="20px" viewBox="0 0 18 20" version="1.1" xmlns="http://www.w3.org/2000/svg" xmlns:xlink="http://www.w3.org/1999/xlink">
    <!-- Generator: Sketch 49 (51002) - http://www.bohemiancoding.com/sketch -->
    <title>解除版本</title>
    <desc>Created with Sketch.</desc>
    <defs></defs>
    <g id="Page-1" stroke="none" stroke-width="1" fill="none" fill-rule="evenodd">
        <g id="解除版本" fill="#9B9B9B" fill-rule="nonzero">
            <path d="M15.8821414,7 L2.21143741,7 C1.00519882,7 0,8.00775194 0,9.31782946 L0,17.5813953 C0,18.8914729 1.00519882,20 2.21143741,20 L15.7816215,20 C16.9878601,20 17.9930589,18.8914729 17.9930589,17.5813953 L17.9930589,9.31782946 C18.0935788,8.00775194 17.08838,7 15.8821414,7 Z M15.8821414,17.6821705 L2.21143741,17.6821705 L2.21143741,9.31782946 L15.7816215,9.31782946 L15.7816215,17.6821705 L15.8821414,17.6821705 Z" id="Shape"></path>
            <path d="M12.5305957,4.83098592 L13.3473548,4.83098592 C13.8011099,4.83098592 14.073363,4.33802817 13.982612,3.94366197 C13.2566038,1.57746479 11.3508324,0 9.08205699,0 C6.26877544,0 4,2.56338028 4,5.81690141 L4,7 L5.99652239,7 L5.99652239,5.81690141 C5.99652239,3.84507042 7.35778766,2.36619718 9.08205699,2.36619718 C10.3525712,2.36619718 11.3508324,3.25352113 11.8953385,4.43661972 C11.9860896,4.63380282 12.2583426,4.83098592 12.5305957,4.83098592 Z" id="Shape"></path>
        </g>
    </g>
</svg>