<?xml version="1.0" encoding="UTF-8"?>
<svg width="17px" height="18px" viewBox="0 0 17 18" version="1.1" xmlns="http://www.w3.org/2000/svg" xmlns:xlink="http://www.w3.org/1999/xlink">
    <!-- Generator: Sketch 49 (51002) - http://www.bohemiancoding.com/sketch -->
    <title>下载</title>
    <desc>Created with Sketch.</desc>
    <defs></defs>
    <g id="Page-1" stroke="none" stroke-width="1" fill="none" fill-rule="evenodd">
        <g id="下载" fill="#9B9B9B" fill-rule="nonzero">
            <path d="M17,11.5542017 L17,17 C17,17.5522431 16.5577141,18 16.0118919,18 L0.988637947,18 C0.442815738,18 1.1319257e-15,17.5522431 1.1319257e-15,17 L0,11.5542017 C0,11.0019586 0.442550834,10.5542017 0.988373043,10.5542017 C1.53419525,10.5542017 1.97674609,11.0019586 1.97674609,11.5542017 L1.97674609,16 L15.0232539,16 L15.0232539,11.5542017 C15.0232539,11.0019586 15.4658047,10.5542017 16.011627,10.5542017 C16.5574492,10.5542017 17,11.0019586 17,11.5542017 Z M7.79411532,12.8083869 C7.98001601,13.0004742 8.23452656,13.1086921 8.50024453,13.1086921 C8.76598288,13.1086921 9.02041191,13.0004742 9.20639411,12.8083869 L13.1494736,8.73525897 C13.5314024,8.34071418 13.5249428,7.70761177 13.1348835,7.32110755 C12.7448446,6.93476828 12.118981,6.94122136 11.7370521,7.33584861 L9.48837304,9.65854363 L9.48837304,1 C9.48837304,0.447756885 9.04582221,0 8.5,0 C7.95417779,0 7.51162696,0.447756885 7.51162696,1 L7.51162696,9.6583993 L5.26359995,7.33584859 C4.88167112,6.9413038 4.25619465,6.93487135 3.86597232,7.32110753 C3.47601489,7.70752927 3.4694942,8.3406317 3.85142303,8.73525895 L7.79411532,12.8083869 Z" id="Shape"></path>
        </g>
    </g>
</svg>