<?xml version="1.0" encoding="UTF-8"?>
<svg width="17px" height="20px" viewBox="0 0 17 20" version="1.1" xmlns="http://www.w3.org/2000/svg" xmlns:xlink="http://www.w3.org/1999/xlink">
    <!-- Generator: Sketch 49 (51002) - http://www.bohemiancoding.com/sketch -->
    <title>分享-弹窗内的</title>
    <desc>Created with Sketch.</desc>
    <defs></defs>
    <g id="Page-1" stroke="none" stroke-width="1" fill="none" fill-rule="evenodd">
        <g id="分享-弹窗内的" fill="#9B9B9B" fill-rule="nonzero">
            <path d="M14.1806567,14.2863264 C13.3940772,14.2863264 12.6784129,14.6168677 12.1655701,15.1440828 L5.33373062,11.3111405 C5.53706902,10.9180021 5.65636364,10.4802412 5.65636364,10.0066359 C5.65636364,9.7252107 5.60333232,9.46165542 5.53252052,9.20259375 L12.2627425,4.97661757 C12.766695,5.43224842 13.4206446,5.71816724 14.1453025,5.71816724 C15.7052296,5.71816724 16.973536,4.43592169 16.973536,2.85908362 C16.973536,1.28224555 15.7052296,0 14.1453025,0 C12.5853755,0 11.3171724,1.28214105 11.3171724,2.85897912 C11.3171724,3.18513139 11.3835391,3.49330923 11.4808148,3.78372165 L4.81230769,7.96967338 C4.30411675,7.46032824 3.60147765,7.14316319 2.82813013,7.14316319 C1.2682031,7.14316319 0,8.42530423 0,10.0023513 C0,11.5791894 1.26830648,12.8612259 2.82813013,12.8612259 C3.37311083,12.8607768 3.90607983,12.69932 4.36148981,12.3967124 L11.4585892,16.3814968 C11.3921192,16.6271821 11.3437397,16.8774656 11.3437397,17.1410209 C11.3437397,18.7179635 12.6120462,20 14.1717665,20 C15.7317969,20 17,18.717859 17,17.1410209 C17.0002067,15.5639738 15.736242,14.2863264 14.1806567,14.2863264 Z" id="Shape"></path>
        </g>
    </g>
</svg>