<?xml version="1.0" encoding="UTF-8"?>
<svg width="21px" height="17px" viewBox="0 0 21 17" version="1.1" xmlns="http://www.w3.org/2000/svg" xmlns:xlink="http://www.w3.org/1999/xlink">
    <!-- Generator: Sketch 49 (51002) - http://www.bohemiancoding.com/sketch -->
    <title>文件夹-2</title>
    <desc>Created with Sketch.</desc>
    <defs></defs>
    <g id="Page-1" stroke="none" stroke-width="1" fill="none" fill-rule="evenodd">
        <g id="文件夹-2" fill="#9B9B9B" fill-rule="nonzero">
            <path d="M20.7910149,6.76530612 C20.6163005,6.59183673 20.3542289,6.41836735 20.0921573,6.41836735 L20.0921573,4.25 C20.0921573,3.38265306 19.3932996,2.68877551 18.5197276,2.68877551 L9.95872144,2.68877551 L9.87136423,2.68877551 L9.52193541,1.3010204 C9.43457821,0.954081633 9.2598638,0.607142848 8.91043497,0.346938768 C8.56100613,0.0867346877 8.21157732,0 7.86214851,0 L1.57242971,0 C0.698857646,0 0,0.693877553 0,1.56122448 L0,15.4387755 C0,15.7857143 0.0873571993,16.1326531 0.349428832,16.3928571 L0.436786031,16.4795918 C0.698857646,16.8265306 1.13564368,17 1.57242971,17 L17.8208699,17 C18.5197276,17 19.131228,16.4795918 19.2185852,15.7857143 L20.0921573,11.8826531 L20.9657293,7.80612246 C21.0530865,7.2857143 20.9657293,7.02551022 20.7910149,6.76530612 Z M1.65978691,1.47448979 L8.03686292,1.47448979 L8.12422012,1.56122448 L8.47364895,3.03571429 C8.56100615,3.38265306 8.73572057,3.64285716 9.08514938,3.90306122 C9.347221,4.1632653 9.69664983,4.24999999 10.0460786,4.25 L18.5197276,4.25 L18.5197276,6.33163265 L3.40693103,6.33163265 C2.8827878,6.33163265 2.44600177,6.67857141 2.35864455,7.19897959 L1.65978691,10.5816326 L1.65978691,1.47448979 Z M18.5197276,11.5357143 L17.7335127,15.2653061 L2.27128735,15.2653061 L3.84371704,7.97959183 L19.3059424,7.97959183 L18.5197276,11.5357143 Z" id="Shape"></path>
            <path d="M12.8535225,10.5204371 L10.3534869,8.1394646 C10.1582353,7.9535118 9.84172584,7.9535118 9.64647427,8.1394646 L7.14643867,10.5204371 C6.95118711,10.7063899 6.95118711,11.0078258 7.14643867,11.1937786 C7.34169024,11.3797314 7.65819972,11.3797314 7.85345129,11.1937786 L9.4999822,9.62566297 L9.4999822,14.1904666 C9.4999822,14.4535653 9.72373991,14.6666667 9.99999515,14.6666667 C10.2762504,14.6666667 10.5000081,14.4535653 10.5000081,14.1904666 L10.5000081,9.62566297 L12.146539,11.1937786 C12.2440386,11.286644 12.3720444,11.3333033 12.5000502,11.3333033 C12.628056,11.3333033 12.7560521,11.2868752 12.8535613,11.1937786 C13.0488129,11.0078258 13.0488129,10.7063899 12.8535613,10.5204371 L12.8535225,10.5204371 Z" id="Shape" transform="translate(10.000000, 11.333333) scale(-1, -1) rotate(90.000000) translate(-10.000000, -11.333333) "></path>
        </g>
    </g>
</svg>