<?xml version="1.0" encoding="UTF-8"?>
<svg width="25px" height="21px" viewBox="0 0 25 21" version="1.1" xmlns="http://www.w3.org/2000/svg" xmlns:xlink="http://www.w3.org/1999/xlink">
    <!-- Generator: Sketch 49 (51002) - http://www.bohemiancoding.com/sketch -->
    <title>新建文件夹-选中 copy</title>
    <desc>Created with Sketch.</desc>
    <defs></defs>
    <g id="Page-1" stroke="none" stroke-width="1" fill="none" fill-rule="evenodd">
        <g id="新建文件夹-选中-copy" fill="#FFFFFF" fill-rule="nonzero">
            <path d="M22.729544,3.31610942 L13.2883296,3.31610942 L12.5007804,2.2112462 C11.6944801,0.753799392 11.4835294,0 10.2287636,0 L2.27201684,0 C1.01725101,3.37453807e-16 0,0.989361702 0,2.2112462 L0,18.7902736 C0,20.0121581 1.01725101,21 2.27201684,21 L22.7279814,21 C23.9843098,21 24.9999982,20.0106383 24.9999982,18.7902736 L24.9999982,5.52583587 C25.0015608,4.30395137 23.9843098,3.31610942 22.729544,3.31610942 Z M18.3120807,13.1048632 L13.3664594,13.1048632 L13.3664594,17.9118541 L11.6351014,17.9118541 L11.6351014,13.1048632 L6.69260531,13.1048632 L6.69260531,11.443769 L11.6351014,11.443769 L11.6351014,6.6337386 L13.368022,6.6337386 L13.368022,11.4407295 L18.3105181,11.4407295 L18.3105181,13.1048632 L18.3120807,13.1048632 Z" id="Shape"></path>
        </g>
    </g>
</svg>