<?xml version="1.0" encoding="UTF-8"?>
<svg width="26px" height="26px" viewBox="0 0 26 26" version="1.1" xmlns="http://www.w3.org/2000/svg" xmlns:xlink="http://www.w3.org/1999/xlink">
    <!-- Generator: Sketch 49 (51002) - http://www.bohemiancoding.com/sketch -->
    <title>全屏-2</title>
    <desc>Created with Sketch.</desc>
    <defs></defs>
    <g id="Symbols" stroke="none" stroke-width="1" fill="none" fill-rule="evenodd">
        <g id="全屏-2" fill="#FFFFFF" fill-rule="nonzero">
            <path d="M22.7499894,0 L3.25001048,0 C1.45758757,0 0,1.45759048 0,3.25001048 L0,22.7499895 C0,24.5424124 1.45759048,26 3.25001048,26 L22.7499895,26 C24.541667,26 26,24.5424095 26,22.7499895 L26,3.25001188 C25.9999999,1.45759048 24.5416668,0 22.7499894,0 Z M24.3750092,22.7499918 C24.3750092,23.6458 23.6458267,24.3750116 22.7499894,24.3750116 L3.25001048,24.3750116 C2.35339572,24.3750116 1.62499068,23.6458 1.62499068,22.7499918 L1.62499068,3.25001188 C1.62499068,2.35420373 2.35339863,1.62499208 3.25001048,1.62499208 L22.7499895,1.62499208 C23.6458268,1.62499208 24.3750093,2.35420373 24.3750093,3.25001188 L24.3750093,22.7499909 L24.3750092,22.7499918 Z M20.312534,4.8750332 L16.2499667,4.8750332 C15.8009007,4.8750332 15.4375019,5.23843201 15.4375019,5.68752999 C15.4375019,6.13662797 15.8009299,6.50005591 16.2499667,6.50005591 L18.35107,6.50005591 L14.8630776,9.98804683 C14.5456587,10.3054366 14.5456587,10.8195966 14.8630776,11.1369835 C15.0217419,11.2956478 15.2296359,11.3749959 15.4375328,11.3749959 C15.6454297,11.3749959 15.8532625,11.2956478 16.0120171,11.1369835 L19.5000401,7.64893139 L19.5000401,9.75000489 C19.5000401,10.1991029 19.863468,10.5625017 20.312566,10.5625017 C20.7608574,10.5625017 21.1250628,10.1991029 21.1250628,9.75000489 L21.1250628,5.68749808 C21.1250278,5.23839998 20.7608253,4.8750332 20.312534,4.8750332 Z M7.64892894,6.50002388 L9.75000245,6.50002388 C10.1982938,6.50002388 10.5624992,6.13659594 10.5624992,5.68749796 C10.5624992,5.23839998 10.1982967,4.87500116 9.75000245,4.87500116 L5.68749668,4.87500116 C5.2383987,4.87500116 4.87499988,5.23839998 4.87499988,5.68749796 L4.87499988,9.75000478 C4.87499988,10.1991028 5.2383987,10.5625016 5.68749668,10.5625016 C6.13581717,10.5625016 6.5000226,10.1991028 6.5000226,9.75000478 L6.5000226,7.64893127 L9.98804555,11.1369833 C10.146739,11.2956476 10.3546038,11.3749958 10.5625299,11.3749958 C10.7704559,11.3749958 10.9782888,11.2956476 11.1370142,11.1369833 C11.4543719,10.8195936 11.4543719,10.3054335 11.1370142,9.98804671 L7.64892894,6.50002388 Z M9.98804438,14.8630771 L6.50002143,18.3510709 L6.50002143,16.2500273 C6.50002143,15.8009002 6.13581891,15.4375013 5.68749552,15.4375013 C5.23839754,15.4375013 4.87499872,15.8009293 4.87499872,16.2500273 L4.87499872,20.3125043 C4.87499872,20.7616022 5.23839754,21.125001 5.68749552,21.125001 L9.75000233,21.125001 C10.1982937,21.125001 10.5624991,20.7615731 10.5624991,20.3125043 C10.5624991,19.8633772 10.1982966,19.4999783 9.75000233,19.4999783 L7.64892883,19.4999783 L11.1369809,16.0119554 C11.4543386,15.6945365 11.4543386,15.1804056 11.1369809,14.8630479 C10.8195942,14.5456612 10.3054341,14.5456612 9.98804438,14.8630771 Z M20.312534,15.4375032 C19.8634069,15.4375032 19.500008,15.8009311 19.500008,16.2500291 L19.500008,18.3510728 L16.0119851,14.8630771 C15.6945662,14.5456582 15.1804062,14.5456582 14.8630776,14.8630771 C14.5456587,15.1804669 14.5456587,15.6945978 14.8630776,16.0119846 L18.3511005,19.5000076 L16.2499972,19.5000076 C15.8009313,19.5000076 15.4375324,19.8634355 15.4375324,20.3125335 C15.4375324,20.7616315 15.8009604,21.1250303 16.2499972,21.1250303 L20.3125338,21.1250303 C20.7608252,21.1250303 21.1250306,20.7616023 21.1250306,20.3125335 L21.1250306,16.2500565 C21.1250278,15.8009311 20.7608253,15.4375032 20.312534,15.4375032 Z" id="Shape"></path>
        </g>
    </g>
</svg>