<?xml version="1.0" encoding="UTF-8"?>
<svg width="20px" height="20px" viewBox="0 0 20 20" version="1.1" xmlns="http://www.w3.org/2000/svg" xmlns:xlink="http://www.w3.org/1999/xlink">
    <!-- Generator: Sketch 49 (51002) - http://www.bohemiancoding.com/sketch -->
    <title>横排序-未选中</title>
    <desc>Created with Sketch.</desc>
    <defs></defs>
    <g id="Page-1" stroke="none" stroke-width="1" fill="none" fill-rule="evenodd">
        <g id="横排序-未选中" fill="#9B9B9B" fill-rule="nonzero">
            <g id="排序-3">
                <path d="M6.9126071,0.00586503067 L2.23336597,0.00586503067 C1.00609547,0.00586503067 0.0113831089,1.00137423 0.0113831089,2.22922699 L0.0113831089,6.91153374 C0.0113831089,8.13965644 1.00609547,9.13489571 2.23336597,9.13489571 L6.9126071,9.13489571 C8.1398776,9.13489571 9.13458996,8.13965644 9.13458996,6.91153374 L9.13458996,2.22922699 C9.13458996,1.00137423 8.13990208,0.00586503067 6.9126071,0.00586503067 Z M8.03875153,6.91153374 C8.03875153,7.53290798 7.53356181,8.03852761 6.91263158,8.03852761 L2.23336597,8.03852761 C1.61243574,8.03852761 1.10724602,7.53290798 1.10724602,6.91153374 L1.10724602,2.22922699 C1.10724602,1.60785276 1.61243574,1.10223313 2.23336597,1.10223313 L6.9126071,1.10223313 C7.53356181,1.10223313 8.03872705,1.60785276 8.03872705,2.22922699 L8.03872705,6.91153374 L8.03875153,6.91153374 Z M6.9126071,10.8653988 L2.23336597,10.8653988 C1.00609547,10.8653988 0.0113831089,11.8603681 0.0113831089,13.0884908 L0.0113831089,17.7710675 C0.0113831089,18.9986258 1.00609547,19.9941595 2.23336597,19.9941595 L6.9126071,19.9941595 C8.1398776,19.9941595 9.13458996,18.9986503 9.13458996,17.7710675 L9.13458996,13.0884663 C9.13458996,11.8603681 8.13990208,10.8653988 6.9126071,10.8653988 Z M8.03875153,17.7710675 C8.03875153,18.3924417 7.53356181,18.8977914 6.91263158,18.8977914 L2.23336597,18.8977914 C1.61243574,18.8977914 1.10724602,18.3924417 1.10724602,17.7710675 L1.10724602,13.0884663 C1.10724602,12.467092 1.61243574,11.9617423 2.23336597,11.9617423 L6.9126071,11.9617423 C7.53356181,11.9617423 8.03872705,12.467092 8.03872705,13.0884663 L8.03872705,17.7710675 L8.03875153,17.7710675 Z M17.7650184,0.00586503067 L13.0858017,0.00586503067 C11.8585067,0.00586503067 10.8638188,1.00137423 10.8638188,2.22922699 L10.8638188,6.91153374 C10.8638188,8.13965644 11.8585067,9.13489571 13.0858017,9.13489571 L17.7650184,9.13489571 C18.9923133,9.13489571 19.9870012,8.13965644 19.9870012,6.91153374 L19.9870012,2.22922699 C19.9870012,1.00137423 18.9923133,0.00586503067 17.7650184,0.00586503067 Z M18.8911383,6.91153374 C18.8911383,7.53290798 18.3859486,8.03852761 17.7650184,8.03852761 L13.0858017,8.03852761 C12.4643084,8.03852761 11.9596573,7.53290798 11.9596573,6.91153374 L11.9596573,2.22922699 C11.9596573,1.60785276 12.4643084,1.10223313 13.0858017,1.10223313 L17.7650184,1.10223313 C18.3859486,1.10223313 18.8911383,1.60785276 18.8911383,2.22922699 L18.8911383,6.91153374 Z M17.7650184,10.8653988 L13.0858017,10.8653988 C11.8585067,10.8653988 10.8638188,11.8603681 10.8638188,13.0884908 L10.8638188,17.7710675 C10.8638188,18.9986258 11.8585067,19.9941595 13.0858017,19.9941595 L17.7650184,19.9941595 C18.9923133,19.9941595 19.9870012,18.9986503 19.9870012,17.7710675 L19.9870012,13.0884663 C19.9870012,11.8603681 18.9923133,10.8653988 17.7650184,10.8653988 Z M18.8911383,17.7710675 C18.8911383,18.3924417 18.3859486,18.8977914 17.7650184,18.8977914 L13.0858017,18.8977914 C12.4643084,18.8977914 11.9596573,18.3924417 11.9596573,17.7710675 L11.9596573,13.0884663 C11.9596573,12.467092 12.4643084,11.9617423 13.0858017,11.9617423 L17.7650184,11.9617423 C18.3859486,11.9617423 18.8911383,12.467092 18.8911383,13.0884663 L18.8911383,17.7710675 Z" id="Shape"></path>
            </g>
        </g>
    </g>
</svg>