<?xml version="1.0" encoding="UTF-8"?>
<svg width="25px" height="25px" viewBox="0 0 25 25" version="1.1" xmlns="http://www.w3.org/2000/svg" xmlns:xlink="http://www.w3.org/1999/xlink">
    <!-- Generator: Sketch 49 (51002) - http://www.bohemiancoding.com/sketch -->
    <title>操作帮助</title>
    <desc>Created with Sketch.</desc>
    <defs></defs>
    <g id="Page-1" stroke="none" stroke-width="1" fill="none" fill-rule="evenodd">
        <g id="操作帮助" fill="#7E879E" fill-rule="nonzero">
            <path d="M12.5,0 C5.59770115,0 0,5.59770115 0,12.5 C0,19.4022989 5.59770115,25 12.5,25 C19.4022989,25 25,19.4022989 25,12.5 C25,5.59770115 19.4022989,0 12.5,0 Z M12.4195402,21.2471264 C11.4022989,21.2471264 10.5747126,20.4367816 10.5747126,19.4396552 C10.5747126,18.4425287 11.3994253,17.6321839 12.4195402,17.6321839 C13.4367816,17.6321839 14.2643678,18.4425287 14.2643678,19.4396552 C14.2643678,20.4367816 13.4396552,21.2471264 12.4195402,21.2471264 Z M17.3735632,11.0201149 C17.0114943,11.5890805 16.2442529,12.362069 15.066092,13.341954 C14.4568966,13.8477011 14.0775862,14.2557471 13.9310345,14.566092 C13.7844828,14.8735632 13.7155172,15.4252874 13.7298851,16.2212644 L11.1034483,16.2212644 C11.0977011,15.8448276 11.091954,15.6149425 11.091954,15.5316092 C11.091954,14.6810345 11.2327586,13.9827586 11.5143678,13.433908 C11.795977,12.8850575 12.3591954,12.2672414 13.2011494,11.5833333 C14.0431034,10.8965517 14.5488506,10.4482759 14.7126437,10.2356322 C14.9655172,9.89942529 15.0948276,9.52873563 15.0948276,9.12643678 C15.0948276,8.56609195 14.8678161,8.0862069 14.4195402,7.68390805 C13.9712644,7.28448276 13.362069,7.08333333 12.6005747,7.08333333 C11.8649425,7.08333333 11.25,7.29310345 10.7557471,7.70977011 C10.2614943,8.12643678 9.8362069,9.04597701 9.73563218,9.61494253 C9.6408046,10.1522989 7.05172414,10.3793103 7.08333333,9.29022989 C7.11494253,8.20114943 7.68103448,7.02011494 8.65229885,6.1637931 C9.62356322,5.30747126 10.8994253,4.87931034 12.4770115,4.87931034 C14.137931,4.87931034 15.4568966,5.31321839 16.4396552,6.18103448 C17.4224138,7.04885057 17.9109195,8.05747126 17.9109195,9.20977011 C17.9137931,9.84770115 17.7327586,10.4511494 17.3735632,11.0201149 Z" id="Shape"></path>
        </g>
    </g>
</svg>