<?xml version="1.0" encoding="UTF-8"?>
<svg width="23px" height="20px" viewBox="0 0 23 20" version="1.1" xmlns="http://www.w3.org/2000/svg" xmlns:xlink="http://www.w3.org/1999/xlink">
    <!-- Generator: Sketch 49 (51002) - http://www.bohemiancoding.com/sketch -->
    <title>文件夹-2 copy 2</title>
    <desc>Created with Sketch.</desc>
    <defs></defs>
    <g id="Symbols" stroke="none" stroke-width="1" fill="none" fill-rule="evenodd">
        <g id="文件夹-2-copy-2" fill="#7E879E" fill-rule="nonzero">
            <path d="M20.4861357,18.5431274 C20.4861357,19.3490791 19.8411706,20 19.0477742,20 L1.07823842,20 L3.59470678,8.21734694 C3.59470678,7.41227524 4.23567364,6.75986107 5.02909638,6.75986107 L21.5642426,6.75986107 C22.3577968,6.75986107 23,7.41227527 23,8.21734694 L20.4861357,18.5431274 Z M3.95225203,5.66630003 L20.1258548,5.66630003 L20.1258548,4.23515923 C20.1258548,3.43008753 19.4808898,2.77764667 18.6887297,2.77764667 L10.0636376,2.77764667 L10.0636376,1.45687258 C10.0636376,0.653080805 9.41993516,0 8.62651245,0 L1.43712516,7.40606068e-16 C0.643492003,7.40606068e-16 0,0.653080805 0,1.45687258 L0,18.5431274 L2.51394322,7.12445254 C2.51396949,6.3192475 3.15882931,5.66630003 3.95225203,5.66630003 Z" id="Shape"></path>
        </g>
    </g>
</svg>