<?xml version="1.0" standalone="no"?><!DOCTYPE svg PUBLIC "-//W3C//DTD SVG 1.1//EN" "http://www.w3.org/Graphics/SVG/1.1/DTD/svg11.dtd"><svg t="1524041406263" class="icon" style="" viewBox="0 0 1024 1024" version="1.1" xmlns="http://www.w3.org/2000/svg" p-id="19902" xmlns:xlink="http://www.w3.org/1999/xlink" width="32" height="32"><defs><style type="text/css"></style></defs><path d="M512.021333 42.666667C253.226667 42.666667 42.666667 253.226667 42.666667 512c0 258.816 210.56 469.333333 469.354666 469.333333C770.794667 981.333333 981.333333 770.816 981.333333 512c0-258.773333-210.56-469.333333-469.312-469.333333z m297.024 766.826666c-59.306667-18.56-171.989333-48.341333-189.226666-59.2-24.746667-15.637333-16.853333-101.034667-16.853334-101.034666l16.853334-14.784s4.309333-38.656 11.626666-52.629334c16.405333-31.445333 33.642667-84.266667 33.642667-84.266666s16.896-12.266667 16.896-33.685334c0-21.376-16.896-33.664-16.896-33.664s6.378667-59.669333 6.378667-101.141333c0-87.018667-54.677333-134.784-152.874667-134.784-98.218667 0-169.856 40.597333-169.856 134.784 0 41.472 13.12 101.12 13.12 101.12s-16.810667 12.309333-16.810667 33.706667c0 21.397333 16.810667 33.685333 16.810667 33.685333s19.648 61.077333 33.706667 84.245333c8.213333 13.546667 11.541333 52.629333 11.541333 52.629334l16.896 14.784s7.978667 85.397333-16.896 101.034666c-18.666667 11.797333-137.898667 42.88-190.506667 60.736C139.370667 734.698667 91.434667 628.842667 91.434667 512c0-231.914667 188.693333-420.586667 420.629333-420.586667 231.893333 0 420.565333 188.672 420.565333 420.586667 0 116.053333-47.274667 221.312-123.562666 297.493333z" p-id="19903" fill="#4a4e55"></path></svg>