<?xml version="1.0" encoding="UTF-8"?>
<svg width="20px" height="16px" viewBox="0 0 20 16" version="1.1" xmlns="http://www.w3.org/2000/svg" xmlns:xlink="http://www.w3.org/1999/xlink">
    <!-- Generator: Sketch 49 (51002) - http://www.bohemiancoding.com/sketch -->
    <title>消息</title>
    <desc>Created with Sketch.</desc>
    <defs></defs>
    <g id="Page-1" stroke="none" stroke-width="1" fill="none" fill-rule="evenodd">
        <g id="消息" transform="translate(10.000000, 8.000000) rotate(-360.000000) translate(-10.000000, -8.000000) " fill="#FFFFFF" fill-rule="nonzero">
            <path d="M19.2092002,7.08569842 L15.3508205,7.08569842 C14.9140716,7.08569842 14.5574364,7.43719548 14.5574364,7.86903473 L14.5574364,8.11257198 C14.5574364,8.54441123 14.9114873,8.89590829 15.3508205,8.89590829 L19.2066158,8.89590829 C19.6459491,8.89590829 20,8.54441123 20,8.11257198 L20,7.86903473 C20,7.43719548 19.6485334,7.08569842 19.2092002,7.08569842 Z M10.2597235,0.362061726 C9.06060215,1.30106103 6.5486497,2.61917502 4.74221477,3.88707515 L4.73963045,3.88707515 C4.71895595,3.89962861 4.69828144,3.96992802 4.67760694,3.98248148 C4.46310894,4.10048407 4.36748936,4.42687421 3.20713271,4.42687421 L0.94327433,4.42687421 C0.36180385,4.42687421 0,4.69551839 0,5.30059547 L0,10.6734792 C0,11.2785563 0.330792084,11.5773288 0.94327433,11.5773288 L3.21488564,11.5773288 C4.37007366,11.5773288 4.46310892,11.9037189 4.67502262,12.0217215 C4.69569713,12.0317642 4.71637163,12.1045743 4.73704614,12.1146171 L4.73963045,12.1171278 C6.4892105,13.3825173 9.01666883,14.8035697 10.2571392,15.7074193 C10.6292803,15.9785741 11.8723349,16.4556059 11.8723349,14.775952 L11.8723349,1.21820815 C11.8749192,-0.461445678 10.6215273,0.0758426911 10.2597235,0.362061726 Z M13.8209071,4.06533436 C14.0276521,4.42185282 14.430805,4.51223777 14.728001,4.26618982 L17.8989534,1.62996185 C18.1961494,1.38391391 18.2685102,0.896839399 18.0643494,0.540320945 L17.9506396,0.339465485 C17.7464789,-0.0170529698 17.3381574,-0.107437918 17.0435457,0.138610025 L13.870009,2.77232732 C13.572813,3.01837526 13.5004523,3.50544977 13.704613,3.8644789 L13.8209071,4.06533436 Z M17.8989534,14.3692197 L14.728001,11.7355024 C14.430805,11.4894545 14.0250678,11.5798395 13.8209071,11.9338472 L13.704613,12.1347027 C13.497868,12.4912211 13.572813,12.9782956 13.870009,13.2268543 L17.0409614,15.8605716 C17.3381574,16.1066195 17.7438946,16.0187452 17.9480553,15.6622268 L18.0643494,15.4613713 C18.2685101,15.1048529 18.1935651,14.6152677 17.8989534,14.3692197 Z" id="Shape"></path>
        </g>
    </g>
</svg>