<?xml version="1.0" encoding="UTF-8"?>
<svg width="20px" height="20px" viewBox="0 0 20 20" version="1.1" xmlns="http://www.w3.org/2000/svg" xmlns:xlink="http://www.w3.org/1999/xlink">
    <!-- Generator: Sketch 49 (51002) - http://www.bohemiancoding.com/sketch -->
    <title>收藏-3 copy</title>
    <desc>Created with Sketch.</desc>
    <defs></defs>
    <g id="Page-1" stroke="none" stroke-width="1" fill="none" fill-rule="evenodd">
        <g id="收藏-3-copy" fill="#7E879E" fill-rule="nonzero">
            <path d="M19.9676458,7.53736333 C19.733442,6.90907831 19.2046217,6.43848899 18.5559723,6.28113611 L14.3459373,5.13796934 L11.5100976,0.979857233 C11.1870756,0.421166961 10.6137886,0.0555941176 9.97349728,0 C9.31537371,0.0328986683 8.72692509,0.422572146 8.43689694,1.01754405 L6.08827204,4.78622572 L2.94011525,5.75352068 L1.40351491,6.28113611 C0.804473152,6.41475275 0.306559296,6.8312123 0.0667975478,7.39917834 C-0.0974813259,8.06181717 0.0448564256,8.76361882 0.454070803,9.30864371 L3.20246165,12.8135177 L3.05254942,17.8384266 C2.93248506,18.4440961 3.05844759,19.0728932 3.40234462,19.5845824 C3.65005406,19.8610864 4.00693357,20.0129149 4.3767741,19.9991374 C4.78452137,19.9805039 5.18601342,19.8912587 5.56357924,19.7353297 L9.62370208,18.0771097 L14.2335031,19.798141 C14.5030909,19.8915525 14.7854423,19.9424046 15.070513,19.9488883 C15.6451766,19.9488883 16.6071134,19.6850806 16.6820695,17.9138002 L16.4322158,13.3913822 L19.4179676,9.3588928 C19.8803516,8.87505817 20.0846666,8.19799668 19.9676458,7.53736333" id="Shape"></path>
        </g>
    </g>
</svg>