<?xml version="1.0" encoding="UTF-8"?>
<svg width="28px" height="28px" viewBox="0 0 28 28" version="1.1" xmlns="http://www.w3.org/2000/svg" xmlns:xlink="http://www.w3.org/1999/xlink">
    <!-- Generator: Sketch 49 (51002) - http://www.bohemiancoding.com/sketch -->
    <title>完成</title>
    <desc>Created with Sketch.</desc>
    <defs></defs>
    <g id="Page-1" stroke="none" stroke-width="1" fill="none" fill-rule="evenodd">
        <g id="完成" fill="#293BDE" fill-rule="nonzero">
            <path d="M14,0 C6.28055556,0 0,6.28055556 0,14 C0,21.7194444 6.28055556,28 14,28 C21.7194444,28 28,21.7194444 28,14 C28,6.28055556 21.7194444,0 14,0 Z M14,26.5265 C7.09294444,26.5265 1.4735,20.9070556 1.4735,14 C1.4735,7.09294444 7.09294444,1.4735 14,1.4735 C20.9070556,1.4735 26.5265,7.09294444 26.5265,14 C26.5265,20.9070556 20.9070556,26.5265 14,26.5265 Z" id="Shape"></path>
            <polygon id="Shape" points="11.7508091 17.895956 8.08373785 14.3368669 7 15.3890852 11.7508091 20 22 10.0522183 20.9162621 9"></polygon>
        </g>
    </g>
</svg>