<?xml version="1.0" encoding="UTF-8"?>
<svg width="19px" height="19px" viewBox="0 0 19 19" version="1.1" xmlns="http://www.w3.org/2000/svg" xmlns:xlink="http://www.w3.org/1999/xlink">
    <!-- Generator: Sketch 49 (51002) - http://www.bohemiancoding.com/sketch -->
    <title>链接</title>
    <desc>Created with Sketch.</desc>
    <defs></defs>
    <g id="Page-1" stroke="none" stroke-width="1" fill="none" fill-rule="evenodd">
        <g id="链接" fill="#9B9B9B" fill-rule="nonzero">
            <path d="M18.9860882,14.4069401 C18.9353613,13.1955836 18.4280922,12.0851735 17.5150079,11.1766561 L16.0439276,9.71293375 C15.5873854,9.25867508 14.8264818,9.25867508 14.3699397,9.71293375 C13.9133975,10.1671924 13.9133975,10.9242902 14.3699397,11.3785489 L15.84102,12.8422713 C16.2975621,13.29653 16.6019236,13.9022082 16.6019236,14.5078864 C16.6019236,14.9116719 16.5511966,15.5173502 16.0439276,16.022082 C15.5873854,16.4763407 15.0293894,16.5772871 14.6235742,16.5772871 C14.0148513,16.5772871 13.3554015,16.274448 12.8481324,15.8201893 L9.14506825,12.1356467 C8.23198392,11.2271293 8.13053011,9.81388012 8.94216062,9.00630914 C9.39870279,8.55205047 9.39870279,7.79495268 8.94216062,7.34069401 C8.48561846,6.88643533 7.72471486,6.88643533 7.26817268,7.34069401 C6.40581527,8.19873816 6,9.25867508 6,10.4195584 C6,11.6309148 6.50726908,12.8927445 7.4710803,13.851735 L11.1741445,17.5362776 C12.0872288,18.444795 13.3554015,19 14.6235742,19 C15.7902931,19 16.906285,18.5457413 17.7179155,17.7381704 C18.6309999,16.829653 19.087542,15.6182966 18.9860882,14.4069401 Z" id="Shape"></path>
            <path d="M4.72508869,7.62145111 C4.67432235,7.62145111 4.67432235,7.62145111 4.72508869,7.62145111 L3.70976213,6.61198737 L3.20209887,6.10725552 C2.74520193,5.65299684 2.44060397,5.0977918 2.38983763,4.49211356 C2.38983763,4.08832808 2.44060397,3.48264984 2.94826723,2.97791797 C3.40516417,2.52365929 3.96359377,2.42271292 4.3697244,2.42271292 C4.97892033,2.42271292 5.63888258,2.67507886 6.14654584,3.17981073 L9.85248773,6.8643533 C10.7662816,7.77287065 10.8678143,9.18611988 10.055553,9.99369086 C9.59865609,10.4479495 9.59865609,11.2050473 10.055553,11.659306 C10.51245,12.1135647 11.2739449,12.1135647 11.7308418,11.659306 C12.5938694,10.8012618 13,9.74132492 13,8.58044164 C13,7.36908518 12.4923367,6.10725552 11.5277765,5.14826497 L7.82183463,1.4637224 C6.90804074,0.555205045 5.63888256,0 4.3697244,0 C3.20209887,0 2.08523968,0.454258675 1.27297844,1.26182966 C0.40995089,2.11987381 -0.0469460542,3.33123029 0.00382026049,4.54258675 C0.0545865975,5.75394321 0.562249856,6.86435333 1.47604374,7.77287065 L1.98370703,8.27760253 L2.94826723,9.28706625 C3.40516417,9.74132492 4.16665907,9.74132492 4.62355602,9.28706625 C5.1312193,8.83280757 5.18198561,8.07570979 4.72508869,7.62145111 Z" id="Shape"></path>
        </g>
    </g>
</svg>