<?xml version="1.0" encoding="UTF-8"?>
<svg width="28px" height="28px" viewBox="0 0 28 28" version="1.1" xmlns="http://www.w3.org/2000/svg" xmlns:xlink="http://www.w3.org/1999/xlink">
    <!-- Generator: Sketch 49 (51002) - http://www.bohemiancoding.com/sketch -->
    <title>扫一扫</title>
    <desc>Created with Sketch.</desc>
    <defs></defs>
    <g id="Page-1" stroke="none" stroke-width="1" fill="none" fill-rule="evenodd">
        <g id="扫一扫" fill="#293BDE" fill-rule="nonzero">
            <path d="M0.777840043,10.88892 C0.984158807,10.8889944 1.18204863,10.8070675 1.32793804,10.661178 C1.47382744,10.5152886 1.55575435,10.3173988 1.55568004,10.1110801 L1.55568004,1.55568018 L10.11108,1.55568018 C10.5406691,1.55568018 10.88892,1.20742935 10.88892,0.777840191 C10.88892,0.348251027 10.5406691,2.02166945e-07 10.11108,2.02166945e-07 L0.777840043,2.02166945e-07 C0.57152128,-7.4106777e-05 0.373631456,0.0818527939 0.227742049,0.2277422 C0.0818526427,0.373631605 -7.4258439e-05,0.571521428 5.05053804e-08,0.777840191 L5.05053804e-08,10.1110801 C-7.4258439e-05,10.3173988 0.0818526427,10.5152886 0.227742049,10.661178 C0.373631456,10.8070675 0.57152128,10.8889944 0.777840043,10.88892 Z M10.11108,26.4443198 L1.55568004,26.4443198 L1.55568004,17.8889199 C1.55568004,17.4593308 1.20742921,17.11108 0.777840043,17.11108 C0.348250878,17.11108 5.05053769e-08,17.4593308 5.05053768e-08,17.8889199 L5.05053768e-08,27.2221598 C-7.4258439e-05,27.4284786 0.0818526427,27.6263684 0.227742049,27.7722578 C0.373631456,27.9181472 0.57152128,28.0000741 0.777840043,27.9999998 L10.11108,27.9999998 C10.5406691,27.9999998 10.88892,27.651749 10.88892,27.2221598 C10.88892,26.7925706 10.5406691,26.4443198 10.11108,26.4443198 Z M27.2221598,2.02166945e-07 L17.8889199,2.02166945e-07 C17.4593307,2.02166945e-07 17.1110799,0.348251027 17.1110799,0.777840191 C17.1110799,1.20742935 17.4593307,1.55568018 17.8889199,1.55568018 L26.4443198,1.55568018 L26.4443198,10.1110801 C26.4443198,10.5406692 26.7925706,10.88892 27.2221598,10.88892 C27.651749,10.88892 27.9999998,10.5406692 27.9999998,10.1110801 L27.9999998,0.777840191 C28.0001485,0.571498645 27.9182455,0.373565582 27.77234,0.227660038 C27.6264344,0.0817544939 27.4285014,-0.000148512519 27.2221598,2.02166945e-07 Z M27.2221598,17.11108 C27.0158183,17.1109312 26.8178852,17.1928342 26.6719796,17.3387398 C26.5260741,17.4846453 26.4441711,17.6825784 26.4443198,17.8889199 L26.4443198,26.4443198 L17.8889199,26.4443198 C17.4593307,26.4443198 17.1110799,26.7925706 17.1110799,27.2221598 C17.1110799,27.651749 17.4593307,27.9999998 17.8889199,27.9999998 L27.2221598,27.9999998 C27.4285014,28.0001485 27.6264344,27.9182455 27.77234,27.77234 C27.9182455,27.6264344 28.0001485,27.4285014 27.9999998,27.2221598 L27.9999998,17.8889199 C28.0001485,17.6825784 27.9182455,17.4846453 27.77234,17.3387398 C27.6264344,17.1928342 27.4285014,17.1109312 27.2221598,17.11108 Z M27.2221598,13.22216 L0.777840043,13.22216 C0.348250878,13.22216 5.05053777e-08,13.5704108 5.05053777e-08,14 C5.05053776e-08,14.4295892 0.348250878,14.77784 0.777840043,14.77784 L27.2221598,14.77784 C27.651749,14.77784 27.9999998,14.4295892 27.9999998,14 C27.9999998,13.5704108 27.651749,13.22216 27.2221598,13.22216 Z" id="Shape"></path>
        </g>
    </g>
</svg>