<?xml version="1.0" encoding="UTF-8"?>
<svg width="149px" height="16px" viewBox="0 0 149 16" version="1.1" xmlns="http://www.w3.org/2000/svg" xmlns:xlink="http://www.w3.org/1999/xlink">
    <!-- Generator: Sketch 49 (51002) - http://www.bohemiancoding.com/sketch -->
    <title>Page 1</title>
    <desc>Created with Sketch.</desc>
    <defs>
        <polygon id="path-1" points="0 17 148 17 148 0 0 0"></polygon>
    </defs>
    <g id="Page-1" stroke="none" stroke-width="1" fill="none" fill-rule="evenodd">
        <g id="Artboard" transform="translate(-20.000000, -63.000000)">
            <g id="大组件-copy">
                <g id="Group-18" transform="translate(0.000000, 35.000000)">
                    <g id="Page-1" transform="translate(20.000000, 28.000000)">
                        <path d="M129.642541,1.8962963 C128.21568,2.37037037 126.609197,2.66666667 124.824876,2.78518519 L124.824876,5.45185185 L130,5.45185185 L130,7.11111111 L128.393517,7.11111111 L128.393517,16 L126.609197,16 L126.609197,7.11111111 L124.824876,7.11111111 L124.824876,8.71111111 C124.765994,11.7333333 124.052266,14.1037037 122.802647,15.9407407 L121.49474,14.5777778 C122.445783,13.1555556 122.981674,11.2 123.040556,8.71111111 L123.040556,1.36296296 C125.18174,1.3037037 127.026133,1.00740741 128.690904,0.355555556 L129.642541,1.8962963 Z M122.089513,13.4518519 L120.60258,14.0444444 C120.364076,12.9777778 120.007806,11.9703704 119.650348,10.962963 L121.137281,10.5481481 C121.49474,11.6148148 121.851009,12.562963 122.089513,13.4518519 Z M117.449686,1.48148148 C117.271254,1.06666667 117.033939,0.651851852 116.795435,0.296296296 L118.639233,0 C118.81826,0.414814815 119.055574,0.948148148 119.234006,1.48148148 L122.326828,1.48148148 L122.326828,3.14074074 L114.475819,3.14074074 L114.475819,1.48148148 L117.449686,1.48148148 Z M116.081707,5.39259259 C115.903275,4.85925926 115.665366,4.32592593 115.367979,3.85185185 L116.914985,3.25925926 C117.152299,3.85185185 117.390209,4.56296296 117.628713,5.39259259 L119.115646,5.39259259 C119.352961,4.68148148 119.591465,3.97037037 119.769302,3.25925926 L121.375785,3.79259259 C121.197353,4.38518519 120.958849,4.91851852 120.72094,5.39259259 L122.3869,5.39259259 L122.3869,6.99259259 L119.294078,6.99259259 L119.294078,8.35555556 L122.089513,8.35555556 L122.089513,9.95555556 L119.294078,9.95555556 L119.294078,14.4 C119.294078,15.4666667 118.699305,16 117.509758,16 L116.617598,16 L116.200662,14.3407407 C116.439166,14.4 116.67648,14.4592593 116.914985,14.4592593 C117.271254,14.4592593 117.509758,14.2814815 117.509758,13.9851852 L117.509758,9.95555556 L114.535891,9.95555556 L114.535891,8.35555556 L117.509758,8.35555556 L117.509758,6.99259259 L114.238504,6.99259259 L114.238504,5.39259259 L116.081707,5.39259259 Z M117.152299,10.962963 C116.736553,12.6814815 116.200662,14.2222222 115.486934,15.4666667 L114,14.5185185 C114.713728,13.2740741 115.249619,11.9703704 115.547006,10.6074074 L117.152299,10.962963 Z" id="Fill-1" fill="#FFFFFF"></path>
                        <path d="M143.70566,7.40298507 L139.419766,7.40298507 L139.419766,9.49253731 L143.642632,9.49253731 L143.642632,7.40298507 L143.70566,7.40298507 Z M146.163746,15.880597 L145.848607,14.5671642 C145.533468,14.7462687 145.155301,14.8656716 144.58805,14.8656716 L143.454179,14.8656716 C142.445103,14.8656716 142.003908,14.3283582 142.003908,13.2537313 L142.003908,10.9253731 L140.995462,10.9253731 C140.743351,12.8955224 139.482793,14.3283582 137.276818,15.2835821 L136.268373,13.7910448 C138.033153,13.1940299 139.104626,12.238806 139.357368,10.9253731 L137.718013,10.9253731 L137.718013,5.97014925 L139.672507,5.97014925 C139.230682,5.25373134 138.789487,4.59701493 138.348292,4 L139.923988,3.28358209 C140.365183,3.88059701 140.806378,4.59701493 141.248204,5.37313433 L139.923988,5.97014925 L141.94088,5.97014925 C142.382075,5.07462687 142.8239,4.11940299 143.201437,3.10447761 L144.966217,3.70149254 C144.58805,4.53731343 144.209883,5.31343284 143.769318,5.97014925 L145.345014,5.97014925 L145.345014,10.9253731 L143.579604,10.9253731 L143.579604,12.9552239 C143.579604,13.1940299 143.70566,13.3731343 143.894743,13.3731343 L144.209883,13.3731343 C144.399597,13.3731343 144.525022,13.3134328 144.651078,13.1343284 C144.777133,13.0149254 144.840161,12.5970149 144.903189,11.8208955 L146.478886,12.2985075 C146.415858,13.2537313 146.226774,13.9104478 146.037691,14.2686567 L146.730997,14.3283582 C147.046136,14.3283582 147.172192,14.0895522 147.172192,13.6119403 L147.172192,2.3880597 L140.428211,2.3880597 L140.428211,0.71641791 L149,0.71641791 L149,14.0298507 C149,15.2238806 148.369721,15.8208955 147.046136,15.8208955 L146.163746,15.8208955 L146.163746,15.880597 Z M139.167654,2.68656716 L137.466532,3.52238806 C136.898651,2.44776119 136.205975,1.55223881 135.512038,0.71641791 L137.21379,0 C138.033153,0.776119403 138.663431,1.67164179 139.167654,2.68656716 Z M134,16 L135.827178,16 L135.827178,2.98507463 L134,2.98507463 L134,16 Z" id="Fill-5" fill="#FFFFFF"></path>
                        <polygon id="Fill-9" fill="#FFFFFF" points="3.5 1 7.06140351 6.26209677 10.622807 1 13.6929825 1 8.53508772 8.25806452 14 16 10.9298246 16 7 10.1935484 3.07017544 16 0 16 5.40350877 8.25806452 0.307017544 1"></polygon>
                        <mask id="mask-2" fill="white">
                            <use xlink:href="#path-1"></use>
                        </mask>
                        <g id="Clip-14"></g>
                        <polygon id="Fill-13" fill="#FFFFFF" mask="url(#mask-2)" points="21 16 24 16 24 1 21 1"></polygon>
                        <polygon id="Fill-16" fill="#FFFFFF" mask="url(#mask-2)" points="35.3529412 1 42.5294118 11.766129 42.5882353 11.766129 42.5882353 1 45 1 45 15.9395161 42.6470588 15.9395161 35.4705882 5.05241935 35.4117647 5.05241935 35.4117647 16 33 16 33 1"></polygon>
                        <polygon id="Fill-18" fill="#FFFFFF" mask="url(#mask-2)" points="56.164557 1 60.5316456 7.74089069 64.8987342 1 68 1 61.7974684 10.048583 61.7974684 16 59.2025316 16 59.2025316 10.048583 53 1"></polygon>
                        <path d="M77.3883495,1 L77.3883495,10.1304348 C77.3883495,11.3754941 77.6796117,12.3247036 78.2621359,12.9175889 C78.8446602,13.5104743 79.7772816,13.806917 81,13.806917 C82.223301,13.806917 83.1553398,13.5104743 83.7378641,12.9175889 C84.3203883,12.3247036 84.6116505,11.3754941 84.6116505,10.1304348 L84.6116505,1 L87,1 L87,10.1304348 C87,12.0282609 86.4763107,13.5104743 85.4271845,14.5177866 C84.3786408,15.5256917 82.9223301,16 81,16 C79.0776699,16 77.6213592,15.5256917 76.5733981,14.5177866 C75.5242718,13.5104743 75,12.0282609 75,10.1304348 L75,1 L77.3883495,1 Z" id="Fill-20" fill="#FFFFFF" mask="url(#mask-2)"></path>
                        <polygon id="Fill-22" fill="#FFFFFF" mask="url(#mask-2)" points="105.641324 1 105.641324 3.10843373 97.3911744 3.10843373 97.3911744 7.26506024 105.162491 7.26506024 105.162491 9.37349398 97.3911744 9.37349398 97.3911744 13.8915663 106 13.8915663 106 16 95 16 95 1"></polygon>
                    </g>
                </g>
            </g>
        </g>
    </g>
</svg>