<?xml version="1.0" encoding="UTF-8"?>
<svg width="22px" height="22px" viewBox="0 0 22 22" version="1.1" xmlns="http://www.w3.org/2000/svg" xmlns:xlink="http://www.w3.org/1999/xlink">
    <!-- Generator: Sketch 49 (51002) - http://www.bohemiancoding.com/sketch -->
    <title>Shape</title>
    <desc>Created with Sketch.</desc>
    <defs></defs>
    <g id="Page-1" stroke="none" stroke-width="1" fill="none" fill-rule="evenodd">
        <g id="分享打开链接-未收藏" transform="translate(-275.000000, -915.000000)" fill="#50E3C2" fill-rule="nonzero">
            <g id="Group-8" transform="translate(220.000000, 35.000000)">
                <g id="Group-31" transform="translate(0.000000, 836.000000)">
                    <path d="M76.2142857,54.1357143 C75.7428571,54.1357143 75.4285714,54.45 75.4285714,54.9214286 L75.4285714,57.0428571 C75.4285714,59.7142857 73.3071429,61.9142857 70.5571429,61.9142857 L58.3785714,61.9142857 L59.4,60.9714286 C59.5571429,60.8142857 59.7142857,60.5785714 59.7142857,60.3428571 C59.7142857,59.8714286 59.3214286,59.4785714 58.85,59.4785714 C58.6142857,59.4785714 58.3,59.5571429 58.1428571,59.7142857 L55.4714286,62.15 C55.0785714,62.4642857 55.1571429,63.0142857 55.4714286,63.3285714 L58.1428571,65.6857143 C58.3,65.8428571 58.6142857,66 58.85,66 C59.3214286,66 59.7142857,65.6857143 59.7928571,65.2142857 C59.7928571,64.9 59.6357143,64.6642857 59.4,64.5071429 L58.2214286,63.4071429 L70.4785714,63.4071429 C74.0928571,63.4071429 77,60.5 77,57.0428571 L77,54.9214286 C77,54.45 76.6857143,54.1357143 76.2142857,54.1357143 Z M55.7857143,56.1 C55.3142857,56.1 55,55.7857143 55,55.3142857 L55,53.1928571 C55,49.5 57.9071429,46.5928571 61.5214286,46.5928571 L73.7,46.5928571 L72.5214286,45.4928571 C72.2857143,45.3357143 72.1285714,45.1 72.1285714,44.7857143 C72.2071429,44.3142857 72.6,44 73.0714286,44 C73.3071429,44 73.6214286,44.1571429 73.7785714,44.3142857 L76.45,46.6714286 C76.7642857,46.9857143 76.8428571,47.5357143 76.45,47.85 L73.8571429,50.2857143 C73.7,50.4428571 73.3857143,50.5214286 73.15,50.5214286 C72.6785714,50.5214286 72.2857143,50.1285714 72.2857143,49.6571429 C72.2857143,49.4214286 72.4428571,49.1857143 72.6,49.0285714 L73.6214286,48.0857143 L61.4428571,48.0857143 C58.7714286,48.1642857 56.5714286,50.3642857 56.5714286,53.1142857 L56.5714286,55.3142857 C56.5714286,55.7857143 56.2571429,56.1 55.7857143,56.1 Z M66.7333333,59.4 L65.56,59.4 L65.56,52.7853333 L64.1666667,53.834 L63.8,52.7853333 L65.6333333,51.3333333 L66.7333333,51.3333333 L66.7333333,59.4 Z" id="Shape"></path>
                </g>
            </g>
        </g>
    </g>
</svg>