<?xml version="1.0" encoding="UTF-8"?>
<svg width="22px" height="22px" viewBox="0 0 22 22" version="1.1" xmlns="http://www.w3.org/2000/svg" xmlns:xlink="http://www.w3.org/1999/xlink">
    <!-- Generator: Sketch 49 (51002) - http://www.bohemiancoding.com/sketch -->
    <title>Shape</title>
    <desc>Created with Sketch.</desc>
    <defs></defs>
    <g id="Symbols" stroke="none" stroke-width="1" fill="none" fill-rule="evenodd">
        <path d="M21.2142857,10.1357143 C20.7428571,10.1357143 20.4285714,10.45 20.4285714,10.9214286 L20.4285714,13.0428571 C20.4285714,15.7142857 18.3071429,17.9142857 15.5571429,17.9142857 L3.37857143,17.9142857 L4.4,16.9714286 C4.55714286,16.8142857 4.71428571,16.5785714 4.71428571,16.3428571 C4.71428571,15.8714286 4.32142857,15.4785714 3.85,15.4785714 C3.61428571,15.4785714 3.3,15.5571429 3.14285714,15.7142857 L0.471428571,18.15 C0.0785714286,18.4642857 0.157142857,19.0142857 0.471428571,19.3285714 L3.14285714,21.6857143 C3.3,21.8428571 3.61428571,22 3.85,22 C4.32142857,22 4.71428571,21.6857143 4.79285714,21.2142857 C4.79285714,20.9 4.63571429,20.6642857 4.4,20.5071429 L3.22142857,19.4071429 L15.4785714,19.4071429 C19.0928571,19.4071429 22,16.5 22,13.0428571 L22,10.9214286 C22,10.45 21.6857143,10.1357143 21.2142857,10.1357143 Z M0.785714286,12.1 C0.314285714,12.1 0,11.7857143 0,11.3142857 L0,9.19285714 C0,5.5 2.90714286,2.59285714 6.52142857,2.59285714 L18.7,2.59285714 L17.5214286,1.49285714 C17.2857143,1.33571429 17.1285714,1.1 17.1285714,0.785714286 C17.2071429,0.314285714 17.6,0 18.0714286,0 C18.3071429,0 18.6214286,0.157142857 18.7785714,0.314285714 L21.45,2.67142857 C21.7642857,2.98571429 21.8428571,3.53571429 21.45,3.85 L18.8571429,6.28571429 C18.7,6.44285714 18.3857143,6.52142857 18.15,6.52142857 C17.6785714,6.52142857 17.2857143,6.12857143 17.2857143,5.65714286 C17.2857143,5.42142857 17.4428571,5.18571429 17.6,5.02857143 L18.6214286,4.08571429 L6.44285714,4.08571429 C3.77142857,4.16428571 1.57142857,6.36428571 1.57142857,9.11428571 L1.57142857,11.3142857 C1.57142857,11.7857143 1.25714286,12.1 0.785714286,12.1 Z M11.7333333,15.4 L10.56,15.4 L10.56,8.78533333 L9.16666667,9.834 L8.8,8.78533333 L10.6333333,7.33333333 L11.7333333,7.33333333 L11.7333333,15.4 Z" id="Shape" fill="#FFFFFF" fill-rule="nonzero"></path>
    </g>
</svg>