<?xml version="1.0" encoding="UTF-8"?>
<svg width="75px" height="75px" viewBox="0 0 75 75" version="1.1" xmlns="http://www.w3.org/2000/svg" xmlns:xlink="http://www.w3.org/1999/xlink">
    <!-- Generator: Sketch 49 (51002) - http://www.bohemiancoding.com/sketch -->
    <title>邮箱</title>
    <desc>Created with Sketch.</desc>
    <defs></defs>
    <g id="Page-1" stroke="none" stroke-width="1" fill="none" fill-rule="evenodd">
        <g id="邮箱" transform="translate(1.000000, 1.000000)">
            <circle id="Oval-4" stroke="#E6E9EB" stroke-width="2" cx="36.5" cy="36.5" r="36.5"></circle>
            <g transform="translate(15.000000, 21.000000)" fill="#E6E9EB" fill-rule="nonzero" id="Shape">
                <path d="M36.75,0 L5.25,0 C2.354625,0 0,2.392 0,5.33333333 L0,26.6666667 C0,29.608 2.354625,32 5.25,32 L36.75,32 C39.645375,32 42,29.608 42,26.6666667 L42,5.33333333 C42,2.392 39.645375,0 36.75,0 Z M36.75,2.66666667 C37.00725,2.66666667 37.23825,2.744 37.471875,2.816 L21.942375,18.4266667 C21.433125,18.944 20.56425,18.944 20.04975,18.4293333 L4.431,2.83466667 C4.6935,2.74666667 4.96125,2.66666667 5.25,2.66666667 L36.75,2.66666667 Z M39.375,26.6666667 C39.375,28.1386667 38.199,29.3333333 36.75,29.3333333 L5.25,29.3333333 C3.803625,29.3333333 2.625,28.1386667 2.625,26.6666667 L2.625,5.33333333 C2.625,5.16533333 2.688,5.02133333 2.7195,4.864 L18.209625,20.3306667 C18.97875,21.0986667 19.98675,21.4853333 20.997375,21.4853333 C22.010625,21.4853333 23.02125,21.096 23.790375,20.3226667 L39.26475,4.768 C39.304125,4.95466667 39.375,5.13333333 39.375,5.33333333 L39.375,26.6666667 Z"></path>
            </g>
        </g>
    </g>
</svg>