<?xml version="1.0" encoding="UTF-8"?>
<svg width="141px" height="160px" viewBox="0 0 141 160" version="1.1" xmlns="http://www.w3.org/2000/svg" xmlns:xlink="http://www.w3.org/1999/xlink">
    <!-- Generator: Sketch 48.2 (47327) - http://www.bohemiancoding.com/sketch -->
    <title>mp3 c160</title>
    <desc>Created with Sketch.</desc>
    <defs></defs>
    <g id="Page-1" stroke="none" stroke-width="1" fill="none" fill-rule="evenodd">
        <g id="mp3-copy-2" fill="#545D72" fill-rule="nonzero">
            <path d="M132.076285,57.2313726 L128.25362,57.2313726 L128.25362,38.6933332 C128.25362,38.5772548 128.234889,38.4611763 128.220841,38.3435294 C128.226077,37.5986153 127.962693,36.8769983 127.479409,36.3121569 L96.7825799,1.07294115 C96.7732144,1.06352937 96.7638489,1.0603921 96.7576053,1.05098032 C96.5209686,0.789901922 96.241717,0.571337536 95.9318845,0.404705901 C95.735847,0.296780566 95.5292283,0.20951902 95.3153258,0.144313814 C95.2575722,0.128627509 95.2060621,0.105098051 95.1483084,0.0894117463 C94.9137263,0.0319048909 94.6733049,0.00190098825 94.4318515,0 L18.9900146,0 C15.5450892,0 12.7463799,2.81568637 12.7463799,6.2745099 L12.7463799,57.2298039 L8.92371469,57.2298039 C6.55699841,57.2298039 4.28721666,58.1746276 2.61369552,59.8564244 C0.940174385,61.5382212 -5.45881367e-15,63.8192272 0,66.197647 L0,112.832941 C0.000861673154,117.785385 3.99564009,121.799918 8.92371469,121.800784 L12.7463799,121.800784 L12.7463799,153.72549 C12.7463799,157.184314 15.5450892,160 18.9900146,160 L122.009985,160 C125.451789,160 128.25362,157.184314 128.25362,153.72549 L128.25362,121.802353 L132.076285,121.802353 C137.00436,121.801487 140.999138,117.786954 141,112.83451 L141,66.1992157 C141,61.2464127 137.004717,57.2313726 132.076285,57.2313726 Z M18.9900146,6.27607853 L91.310034,6.27607853 L91.310034,38.3780393 C91.310034,39.210091 91.6389389,40.0080641 92.2243932,40.5964135 C92.8098475,41.1847629 93.603894,41.5152942 94.4318515,41.5152941 L122.009985,41.5152941 L122.009985,57.2329412 L18.9900146,57.2329412 L18.9900146,6.27607853 Z M100.344573,79.9184313 C100.344573,84.0941176 98.9553645,87.6423529 96.437619,90.0470589 C93.1612717,93.1529413 88.3084068,94.5443137 82.6376257,94.5443137 C81.5426166,94.5544332 80.4481328,94.4920761 79.3612784,94.357647 L79.3612784,109.612549 L69.8428575,109.612549 L69.8428575,67.507451 C72.8070231,66.9960784 76.9652838,66.6164706 82.8249348,66.6164706 C88.7470222,66.6164706 92.9692801,67.7599999 95.807012,70.0423529 C98.5183102,72.1913724 100.344573,75.7364705 100.344573,79.9184313 Z M15.5856728,109.612549 L18.2954103,66.9380393 L31.0854958,66.9380393 L35.2453172,81.1843138 C36.5705287,86.122353 37.8910573,91.4415687 38.8369681,96.4423529 L39.0289598,96.4423529 C40.2261768,91.5043137 41.6747,85.8729412 43.0607869,81.1231372 L47.5983483,66.9380393 L60.1371274,66.9380393 L62.4675642,109.612549 L53.0818204,109.612549 L52.4512134,93.28 C52.2592216,88.1490196 52.0719126,81.9403922 52.0719124,75.7364707 L51.8846034,75.7364707 C50.5127366,81.3041212 48.9351267,86.8185268 47.1550502,92.2682352 L41.9915645,108.919216 L34.4929593,108.919216 L29.9553978,92.387451 C28.5708718,87.3866667 27.1192268,81.3082352 26.1124407,75.7364707 L25.9844463,75.7364707 C25.7331401,81.499608 25.54427,88.0831373 25.2305273,93.402353 L24.4719258,109.612549 L15.5856728,109.612549 Z M122.009985,152.026667 L18.9900146,152.026667 L18.9900146,121.802353 L122.009985,121.802353 L122.009985,152.026667 Z M116.858987,110.310588 C111.562824,110.310588 107.08926,108.919216 104.694826,107.400784 L106.650644,100.178823 C108.350474,101.066667 112.257428,102.709019 116.164383,102.70902 C121.140559,102.70902 123.662988,100.304314 123.662988,97.2031372 C123.662988,93.1529411 119.628039,91.3113725 115.405781,91.3113725 L111.498827,91.3113725 L111.498827,84.4094118 L115.218472,84.4094118 C118.430822,84.3513727 122.529768,83.1466667 122.529768,79.6611765 C122.529768,77.1921569 120.511513,75.3600001 116.479686,75.3599999 C113.139341,75.3599999 109.611688,76.8156861 107.908737,77.8290195 L105.957601,70.8596078 C108.416032,69.2784314 113.328211,67.7584313 118.624375,67.7584313 C127.381072,67.7584313 132.233937,72.3811764 132.233937,78.0188236 C132.233937,82.3843138 129.775506,85.8070589 124.735332,87.5780393 L124.735332,87.7066668 C129.652194,88.5945099 133.623146,92.3262746 133.623146,97.7098039 C133.620024,104.991372 127.254638,110.310588 116.858987,110.310588 Z" id="Shape"></path>
            <path d="M84.4955091,74 C82.284023,74 80.7819815,74.1834025 80,74.3698873 L80,86.7503261 C80.9270551,86.9337286 82.0717201,87 83.6409907,87 C89.4262384,87 93,84.4477771 93,80.1524601 C92.9982308,76.2994666 89.926919,74 84.4955091,74 Z" id="Shape"></path>
        </g>
    </g>
</svg>