<?xml version="1.0" encoding="UTF-8"?>
<svg width="19px" height="19px" viewBox="0 0 21 25" version="1.1" xmlns="http://www.w3.org/2000/svg" xmlns:xlink="http://www.w3.org/1999/xlink">
    <!-- Generator: Sketch 49 (51002) - http://www.bohemiancoding.com/sketch -->
    <title>提醒</title>
    <desc>Created with Sketch.</desc>
    <defs></defs>
    <g id="Page-1" stroke="none" stroke-width="1" fill="none" fill-rule="evenodd">
        <g id="提醒" fill="#fff" fill-rule="nonzero">
            <path d="M16,22 C16,23.6149733 13.631016,25 11.5,25 C9.36898396,25 7,23.473262 7,22" id="Shape"></path>
            <path d="M13.2791411,3 L13.2791411,1.59732824 C12.8558282,1.38358779 12.1104294,1.07061069 11.5,1.07061069 C10.8680982,1.07061069 10.1380368,1.3759542 9.7208589,1.59351145 L9.7208589,2.9980916 L8,2.9980916 L8,1.13549618 L8.24846626,0.979007634 C8.40797546,0.877862595 9.85582822,0 11.5,0 C13.1134969,0 14.5828221,0.874045802 14.7453988,0.97519084 L15,1.13167939 L15,3 L13.2791411,3 Z" id="Shape"></path>
            <path d="M10.4986629,3 C14.6409016,3 17.999618,6.46061588 17.999618,10.7285251 L17.999618,15.3628849 C17.999618,17.0408428 21,18.454295 21,18.454295 L21,20 L0,20 L0,18.454295 C0,18.454295 3.00038202,16.9471637 3.00038202,15.3628849 L3.00038202,10.7285251 C2.99770788,6.45786062 6.3564243,3 10.4986629,3 Z" id="Shape"></path>
        </g>
    </g>
</svg>