<?xml version="1.0" encoding="UTF-8"?>
<svg width="19px" height="19px" viewBox="0 0 19 19" version="1.1" xmlns="http://www.w3.org/2000/svg" xmlns:xlink="http://www.w3.org/1999/xlink">
    <!-- Generator: Sketch 49 (51002) - http://www.bohemiancoding.com/sketch -->
    <title>应用-选中</title>
    <desc>Created with Sketch.</desc>
    <defs></defs>
    <g id="Page-1" stroke="none" stroke-width="1" fill="none" fill-rule="evenodd">
        <g id="应用-选中" fill="#FFFFFF" fill-rule="nonzero">
            <path d="M17.9204589,4.58629521 L9.5,8.75844974 L1.07954109,4.58629521 C0.616886716,4.34086437 0.647716128,3.75799265 1.11039183,3.54324597 L8.88311328,0.138046892 C9.25323679,-0.0460156306 9.71591248,-0.0460156306 10.086036,0.138046892 L17.8587574,3.51258302 C18.3831133,3.75801385 18.3831133,4.34088558 17.9204589,4.58629521 Z M7.80357219,18.9127423 L0.67856686,15.0473657 C0.246741894,14.832619 0,14.464494 0,14.0350006 L0,6.27356327 C0,5.81340696 0.586035984,5.53729197 1.01786095,5.78272281 L8.14286628,9.6480994 C8.54384051,9.86284608 8.79060373,10.2309711 8.79060373,10.6604645 L8.79060373,18.4219018 C8.82143314,18.851374 8.23539716,19.1581519 7.80357219,18.9127423 Z M11.2272785,18.9127423 L18.3522626,15.0473657 C18.7532368,14.832619 19,14.464494 19,14.0350006 L19,6.27356327 C19,5.81340696 18.413964,5.53729197 17.982139,5.78272281 L10.8263043,9.61743645 C10.4253301,9.83218313 10.1785669,10.2003082 10.1785669,10.6298015 L10.1785669,18.3912389 C10.1785669,18.851374 10.7646028,19.1581519 11.2272785,18.9127423 Z" id="Shape"></path>
        </g>
    </g>
</svg>