<?xml version="1.0" encoding="UTF-8"?>
<svg width="20px" height="20px" viewBox="0 0 23 21" version="1.1" xmlns="http://www.w3.org/2000/svg" xmlns:xlink="http://www.w3.org/1999/xlink">
    <!-- Generator: Sketch 49 (51002) - http://www.bohemiancoding.com/sketch -->
    <title>画笔-2 copy 3</title>
    <desc>Created with Sketch.</desc>
    <defs></defs>
    <g id="Symbols" stroke="none" stroke-width="1" fill="none" fill-rule="evenodd">
        <g id="画笔-2-copy-3" fill="#7E8495" fill-rule="nonzero">
            <path d="M19.992161,4.37164791 C18.9542985,5.7015109 16.1059008,9.37272912 13.8439778,12.2900006 L10.9726362,9.21996085 C13.5708461,6.78582615 16.785892,3.775823 17.9478228,2.69772171 C20.0154864,0.779395011 21.8281921,-0.362351757 22.2220532,0.104198508 C22.4681389,0.363345288 21.8135958,2.03896835 19.992161,4.37164791 Z M13.3427434,12.9364694 C12.4667518,14.0662423 11.713016,15.0387299 11.251325,15.6343157 L7.85132133,12.1451671 C8.4022833,11.6283553 9.31989338,10.7684125 10.3834663,9.7718816 L13.3427434,12.9364694 Z M10.7443904,16.2885759 L10.7443904,16.2781317 C8.770434,24.2540354 0,19.6691951 0,19.6691951 C0,19.6691951 3.67986118,20.1576138 3.67986118,16.5427037 C3.67986118,13.0383308 7.06195343,12.7220872 7.26940189,12.7060503 L10.751307,16.2793984 C10.7508776,16.2800676 10.7443904,16.2885759 10.7443904,16.2885759 Z" id="Shape"></path>
        </g>
    </g>
</svg>