<?xml version="1.0" encoding="UTF-8"?>
<svg width="14px" height="21px" viewBox="0 0 14 21" version="1.1" xmlns="http://www.w3.org/2000/svg" xmlns:xlink="http://www.w3.org/1999/xlink">
    <!-- Generator: Sketch 49 (51002) - http://www.bohemiancoding.com/sketch -->
    <title>手机</title>
    <desc>Created with Sketch.</desc>
    <defs></defs>
    <g id="Symbols" stroke="none" stroke-width="1" fill="none" fill-rule="evenodd">
        <g id="手机" fill="#9B9B9B" fill-rule="nonzero">
            <path d="M11.9259259,21 L2.07407407,21 C0.928594592,21 0,20.0827297 0,18.9512195 L0,2.04878049 C0,0.917270268 0.928594592,2.07855055e-16 2.07407407,0 L11.9259259,0 C13.0714054,6.92850184e-17 14,0.917270268 14,2.04878049 L14,18.9512195 C14,20.0827297 13.0714054,21 11.9259259,21 Z M12.962963,2.04878049 C12.9629629,1.48302539 12.4986657,1.02439027 11.9259259,1.02439025 L2.07407407,1.02439025 C1.50133434,1.02439027 1.03703706,1.48302539 1.03703705,2.04878049 L1.03703705,14.8536585 L12.962963,14.8536585 L12.962963,2.04878049 Z M12.962963,15.8780488 L1.03703705,15.8780488 L1.03703705,18.9512195 C1.03703706,19.5169746 1.50133434,19.9756097 2.07407407,19.9756097 L11.9259259,19.9756097 C12.4986657,19.9756097 12.9629629,19.5169746 12.962963,18.9512195 L12.962963,15.8780488 Z M7,18.9512195 C6.72203413,18.951128 6.46523249,18.8045589 6.32632978,18.5667233 C6.18742706,18.3288878 6.18752589,18.0359186 6.32658904,17.7981745 C6.46565219,17.5604305 6.72255266,17.4140304 7.00051853,17.4141219 C7.43021651,17.4142634 7.77843947,17.7584691 7.77829628,18.1829268 C7.77815309,18.6073846 7.42969798,18.9513609 7,18.9512195 Z" id="Shape"></path>
        </g>
    </g>
</svg>