<?xml version="1.0" encoding="UTF-8"?>
<svg width="30px" height="27px" viewBox="0 0 30 27" version="1.1" xmlns="http://www.w3.org/2000/svg" xmlns:xlink="http://www.w3.org/1999/xlink">
    <!-- Generator: Sketch 49 (51002) - http://www.bohemiancoding.com/sketch -->
    <title>相机</title>
    <desc>Created with Sketch.</desc>
    <defs></defs>
    <g id="Symbols" stroke="none" stroke-width="1" fill="none" fill-rule="evenodd">
        <g id="相机" fill="#FFFFFF" fill-rule="nonzero">
            <path d="M10.5912104,3.22980863 C11.3175746,2.42039079 11.9801292,2.06043956 13.0949817,2.06043956 L16.9277845,2.06043956 C17.9562159,2.06043956 18.7448256,2.49048536 19.3140495,3.12445589 L20.7689696,4.74446485 C21.3901979,5.43814619 22.8343102,6.15058567 23.9045287,6.15058567 L26.0159118,6.15058567 C27.0699179,6.15058567 27.9069767,6.93178319 27.9069767,7.86149575 L27.9069767,23.0143647 C27.9069767,23.9429449 27.0726232,24.7221566 26.0127797,24.7252794 L3.98408814,24.7252747 C3.94385508,24.7252747 3.90382508,24.7241398 3.86402674,24.7218824 C2.86258457,24.6650765 2.09302326,23.904925 2.09302326,23.0143647 L2.09302326,7.86149575 C2.09302326,6.93178319 2.9300822,6.15058567 3.98408814,6.15058567 L6.04847003,6.15058567 C7.11163888,6.15058567 8.59537023,5.45318754 9.17632088,4.80562039 L10.5912104,3.22980863 Z M6.04847003,4.09014611 L3.98408814,4.09014611 C1.79838262,4.09014611 0,5.768513 0,7.86149575 L0,23.0143647 C0,25.0220619 1.65887668,26.6606547 3.74362429,26.7789099 C3.82350755,26.7834412 3.9036883,26.7857143 3.98408814,26.7857143 L26.0159118,26.7857143 C28.2071541,26.7792625 30,25.1049047 30,23.0143647 L30,7.86149575 C30,5.768513 28.2016174,4.09014611 26.0159118,4.09014611 L23.9045287,4.09014611 C23.4685401,4.09014611 22.5812495,3.65240951 22.3380008,3.38079174 L20.8821932,1.75979294 C19.9480542,0.719399736 18.6288328,0 16.9277845,0 L13.0949817,0 C11.309014,0 10.114435,0.648988319 9.02280063,1.865442 L7.60781043,3.44136595 C7.41344744,3.65801602 6.4940803,4.09014611 6.04847003,4.09014611 Z" id="Shape"></path>
            <path d="M21.0434783,15.377551 C21.0434783,11.8413985 18.1108521,9 14.5217391,9 C10.9326262,9 8,11.8413985 8,15.377551 C8,18.9137035 10.9326262,21.755102 14.5217391,21.755102 C18.1108521,21.755102 21.0434783,18.9137035 21.0434783,15.377551 Z M10.0594966,15.377551 C10.0594966,13.036127 12.0445665,11.1128083 14.5217391,11.1128083 C16.9989119,11.1128083 18.9839817,13.036127 18.9839817,15.377551 C18.9839817,17.718975 16.9989119,19.6422937 14.5217391,19.6422937 C12.0445665,19.6422937 10.0594966,17.718975 10.0594966,15.377551 Z" id="Shape"></path>
        </g>
    </g>
</svg>