<?xml version="1.0" encoding="UTF-8"?>
<svg width="18px" height="20px" viewBox="0 0 18 20" version="1.1" xmlns="http://www.w3.org/2000/svg" xmlns:xlink="http://www.w3.org/1999/xlink">
    <!-- Generator: Sketch 49 (51002) - http://www.bohemiancoding.com/sketch -->
    <title>删除</title>
    <desc>Created with Sketch.</desc>
    <defs></defs>
    <g id="Page-1" stroke="none" stroke-width="1" fill="none" fill-rule="evenodd">
        <g id="删除" fill="#9B9B9B" fill-rule="nonzero">
            <path d="M15.3,6.36363637 L11.25,6.36363637 C11.52,6.36363637 11.7,6.54545455 11.7,6.81818182 L11.7,15 C11.7,15.2727273 11.52,15.4545454 11.25,15.4545454 C10.98,15.4545454 10.8,15.2727273 10.8,15 L10.8,6.81818182 C10.8,6.54545455 10.98,6.36363637 11.25,6.36363637 L6.75,6.36363637 C7.02,6.36363637 7.2,6.54545455 7.2,6.81818182 L7.2,15 C7.2,15.2727273 7.02,15.4545454 6.75,15.4545454 C6.48000001,15.4545454 6.30000001,15.2727273 6.29999999,15 L6.29999999,6.81818182 C6.29999999,6.54545455 6.47999999,6.36363637 6.75,6.36363637 L2.69999999,6.36363637 C2.43,6.36363637 2.25,6.54545455 2.25,6.81818182 L2.25,18.1818182 C2.25,19.1818182 3.05999999,20 4.05,20 L13.95,20 C14.94,20 15.75,19.1818182 15.75,18.1818182 L15.75,6.81818182 C15.75,6.54545455 15.57,6.36363637 15.3,6.36363637 Z M17.55,3.63636363 L14.4,3.63636363 L14.4,1.81818182 C14.4,0.818181816 13.59,0 12.6,0 L5.4,0 C4.41,0 3.6,0.818181816 3.6,1.81818182 L3.6,3.63636363 L0.449999995,3.63636363 C0.180000002,3.63636363 0,3.81818182 0,4.09090908 C0,4.36363635 0.180000002,4.54545453 0.449999995,4.54545455 L17.55,4.54545455 C17.82,4.54545455 18,4.36363637 18,4.09090908 C18,3.8181818 17.82,3.63636363 17.55,3.63636363 Z" id="Shape"></path>
        </g>
    </g>
</svg>