<?xml version="1.0" encoding="UTF-8"?>
<svg width="18px" height="15px" viewBox="0 0 18 15" version="1.1" xmlns="http://www.w3.org/2000/svg" xmlns:xlink="http://www.w3.org/1999/xlink">
    <!-- Generator: Sketch 49 (51002) - http://www.bohemiancoding.com/sketch -->
    <title>退出-2</title>
    <desc>Created with Sketch.</desc>
    <defs></defs>
    <g id="Page-1" stroke="none" stroke-width="1" fill="none" fill-rule="evenodd">
        <g id="退出-2" fill="#9B9B9B" fill-rule="nonzero">
            <path d="M17.5994549,6.15613087 L11.6758324,0.375617771 C11.3072464,0.0172571214 10.866769,-0.0895833208 10.4114569,0.0762419489 C9.94473339,0.247631825 9.67770822,0.654961011 9.67656709,1.19584075 L9.67656709,3.80675406 L8.51717576,3.80675406 L5.18963136,3.80786698 C4.49125784,3.81009282 4.00399397,4.28308436 4.0017117,4.9597405 C3.99942943,6.32306906 3.99942943,7.68528469 4.0017117,9.04750033 C4.00399397,9.70301096 4.49696351,10.18268 5.17479663,10.1893576 L9.67656709,10.1904705 L9.67542595,10.6957367 C9.67314369,11.4046676 9.67086142,12.1113726 9.68569615,12.8191905 C9.69026068,13.0963079 9.80209174,13.3979096 9.97554398,13.6049129 C10.1877948,13.8597719 10.4787837,14 10.7948776,14 C11.1075481,14 11.4225009,13.8608848 11.6815381,13.6093646 C13.6579808,11.6840108 15.6321412,9.75754411 17.6063017,7.82996446 C18.1335052,7.31690775 18.1312229,6.67475218 17.5994549,6.15613087 Z" id="Shape"></path>
            <path d="M6.93264077,12.7138096 L6.93149602,12.7138096 L5.63335366,12.7160821 L3.77543032,12.7149458 C2.83673831,12.7149458 2.29756278,12.1797591 2.29756278,11.2468752 L2.29756278,3.74403454 C2.29756278,2.81342323 2.83673831,2.27937277 3.77771982,2.27937277 L5.00832215,2.2782365 L6.36026759,2.27937277 L7.11236595,2.2782365 C7.65039674,2.2782365 7.94459655,2.01007499 7.98695216,1.48284221 C8.00297861,1.28626619 7.99839963,1.08628134 7.99153115,0.863570942 C7.97779419,0.307931217 7.66413369,0.00113627755 7.1112212,0 L5.7455388,0 C5.01404588,0 4.28255296,0 3.55220478,0.00454511022 C3.3278345,0.00568138777 3.09774048,0.030679494 2.86764646,0.0795394288 C1.21806697,0.428376638 0.0137938014,1.89644724 0.00463583061,3.57018408 C5.68451893e-05,4.47238846 0.00120159154,5.37572911 0.0023463379,6.27679721 L0.00349108425,7.47784259 L0.00120159154,8.7379744 C5.68451893e-05,9.64358761 -0.00223264752,10.5480645 0.00578057696,11.454814 C0.0218070259,13.3683054 1.59354377,14.9534126 3.50984917,14.9886372 C3.98148467,14.9977274 4.45426491,15 4.92590041,15 L7.16845852,14.9954549 C7.61147536,14.9954549 7.92170162,14.7284297 7.97664945,14.2989167 C7.99611013,14.1421104 7.99839963,13.9818953 7.99954437,13.8216802 L7.99954437,13.7421407 C8.00183387,13.505795 8.00412336,13.1819559 7.77517409,12.9524278 C7.55423804,12.7331263 7.23599856,12.7138096 6.93264077,12.7138096 Z" id="Shape"></path>
        </g>
    </g>
</svg>