<?xml version="1.0" encoding="UTF-8"?>
<svg width="14px" height="13px" viewBox="0 0 14 13" version="1.1" xmlns="http://www.w3.org/2000/svg" xmlns:xlink="http://www.w3.org/1999/xlink">
    <!-- Generator: Sketch 49 (51002) - http://www.bohemiancoding.com/sketch -->
    <title>评论2</title>
    <desc>Created with Sketch.</desc>
    <defs></defs>
    <g id="Page-1" stroke="none" stroke-width="1" fill="none" fill-rule="evenodd">
        <g id="评论2" fill="#B4B6BF" fill-rule="nonzero">
            <path d="M4.02400315,13 C3.96590597,13 3.90747441,12.9869235 3.85263736,12.9602403 C3.70735261,12.8895565 3.61406274,12.7359074 3.61406274,12.5666195 L3.61406274,10.7195618 C3.61406274,10.4901926 3.43751418,10.3036756 3.2201722,10.3036756 L1.21393855,10.3036756 C0.544525251,10.3036756 0,9.72804382 0,9.0209401 L0,1.28282382 C0,0.575543382 0.544525251,0 1.21393855,0 L12.7864794,0 C13.4554747,0 14,0.575543382 14,1.28282382 L14,9.02102845 C14,9.72813218 13.4554747,10.3037639 12.7864794,10.3037639 L7.29742414,10.3037639 C7.20338194,10.3037639 7.11209831,10.3391058 7.04045905,10.4044884 L4.29074864,12.8956529 C4.21501332,12.964393 4.12013518,13 4.02400315,13 Z" id="Shape"></path>
        </g>
    </g>
</svg>