<?xml version="1.0" encoding="UTF-8"?>
<svg width="25px" height="23px" viewBox="0 0 25 23" version="1.1" xmlns="http://www.w3.org/2000/svg" xmlns:xlink="http://www.w3.org/1999/xlink">
    <!-- Generator: Sketch 49 (51002) - http://www.bohemiancoding.com/sketch -->
    <title>设置 -选中</title>
    <desc>Created with Sketch.</desc>
    <defs></defs>
    <g id="Page-1" stroke="none" stroke-width="1" fill="none" fill-rule="evenodd">
        <g id="设置--选中" fill="#FFFFFF" fill-rule="nonzero">
            <path d="M24.7343252,9.125 C24.588204,8.37179487 24.1166312,7.88782051 23.5288257,7.89102564 L23.4026302,7.89102564 C21.718916,7.89102564 20.3440489,6.55128205 20.3440489,4.91025641 C20.3440489,4.37820513 20.6064028,3.77884615 20.6097237,3.77564103 C20.9119288,3.11217949 20.6794633,2.30128205 20.0684113,1.88461538 L16.9334485,0.182692308 C16.6910202,0.0801282051 16.4685175,0.0384615385 16.2360521,0.0384615385 C15.7545165,0.0384615385 15.2829437,0.224358974 14.9740967,0.538461538 C14.6353613,0.881410256 13.4630712,1.85576923 12.5597768,1.85576923 C11.6498406,1.85576923 10.4709086,0.858974359 10.1288523,0.512820513 C9.81668438,0.192307692 9.34511158,0 8.85693411,0 C8.62778959,0 8.4119288,0.0416666667 8.21267269,0.121794872 L4.96479809,1.85576923 C4.31389479,2.29487179 4.08142933,3.10897436 4.38363443,3.76923077 C4.38695537,3.77564103 4.64930925,4.36858974 4.64930925,4.90705128 C4.64930925,6.55128205 3.27776302,7.88782051 1.59072795,7.88782051 L1.48445802,7.88782051 C0.880047821,7.88782051 0.411795962,8.37179487 0.262353879,9.125 C0.252391073,9.17948718 0,10.4839744 0,11.5096154 C0,12.5288462 0.249070138,13.8365385 0.262353879,13.8942308 C0.408475027,14.6474359 0.880047821,15.1314103 1.46453241,15.1314103 L1.59072795,15.1314103 C3.27776302,15.1314103 4.64930925,16.4711538 4.64930925,18.1121795 C4.64930925,18.6442308 4.38695537,19.2435897 4.38363443,19.2467949 C4.08142933,19.9070513 4.31057386,20.7211538 4.92162593,21.1378205 L7.9968119,22.8173077 C8.23924017,22.9230769 8.45842189,22.9647436 8.69088735,22.9647436 C9.17574389,22.9647436 9.65395855,22.7692308 9.96280553,22.4423077 C10.3945271,21.9839744 11.5668172,21.0416667 12.4335813,21.0416667 C13.370085,21.0416667 14.5722635,22.099359 14.9209617,22.4679487 C15.2331296,22.8012821 15.7080234,23 16.1995218,23 C16.4286663,23 16.6445271,22.9583333 16.8437832,22.875 L20.0352019,21.1602564 C20.6827843,20.7211538 20.9185707,19.9102564 20.6163656,19.2467949 C20.6130446,19.2403846 20.3506908,18.6378205 20.3506908,18.1089744 C20.3506908,16.4647436 21.722237,15.1282051 23.4092721,15.1282051 L23.515542,15.1282051 C24.1199522,15.1282051 24.591525,14.6410256 24.7376461,13.8910256 C24.7409671,13.8782051 25,12.5544872 25,11.5064103 C24.9966791,10.4807692 24.7476089,9.17948718 24.7343252,9.125 Z M12.5066419,16.1442308 C10.0657545,16.1442308 8.07983528,14.2115385 8.07983528,11.8333333 C8.07983528,9.45512821 10.0657545,7.5224359 12.5066419,7.5224359 C14.9442083,7.5224359 16.9334485,9.45512821 16.9334485,11.8333333 C16.9334485,14.2115385 14.9508502,16.1442308 12.5066419,16.1442308 Z" id="Shape"></path>
        </g>
    </g>
</svg>