<?xml version="1.0" encoding="UTF-8"?>
<svg width="25px" height="25px" viewBox="0 0 25 25" version="1.1" xmlns="http://www.w3.org/2000/svg" xmlns:xlink="http://www.w3.org/1999/xlink">
    <!-- Generator: Sketch 49 (51002) - http://www.bohemiancoding.com/sketch -->
    <title>收藏-3</title>
    <desc>Created with Sketch.</desc>
    <defs></defs>
    <g id="Page-1" stroke="none" stroke-width="1" fill="none" fill-rule="evenodd">
        <g id="收藏-3" transform="translate(1.000000, 1.000000)" fill-rule="nonzero" stroke="#FFFFFF" stroke-width="2">
            <path d="M22.9627927,8.66796783 C22.6934583,7.94544005 22.085315,7.40426234 21.3393682,7.22330653 L16.4978279,5.90866474 L13.2366123,1.12683582 C12.8651369,0.484342005 12.2058569,0.0639332353 11.4695219,0 C10.7126798,0.0378334686 10.0359638,0.485957968 9.70243149,1.17017566 L7.00151285,5.50415957 L3.38113254,6.61654878 L1.61404215,7.22330653 C0.925144125,7.37696566 0.35254319,7.85589415 0.07681718,8.50905509 C-0.112103525,9.27108975 0.0515848895,10.0781616 0.522181424,10.7049403 L3.6828309,14.7355453 L3.51043184,20.5141905 C3.37235782,21.2107106 3.51721473,21.9338272 3.91269631,22.5222697 C4.19756217,22.8402493 4.6079736,23.0148521 5.03329022,22.999008 C5.50219957,22.9775795 5.96391543,22.8749475 6.39811613,22.6956291 L11.0672574,20.7886762 L16.3685286,22.7678622 C16.6785546,22.8752854 17.0032586,22.9337653 17.33109,22.9412215 C17.9919531,22.9412215 19.0981804,22.6378427 19.1843799,20.6008702 L18.8970481,15.4000895 L22.3306628,10.7627267 C22.8624043,10.2063169 23.0973666,9.42769619 22.9627927,8.66796783" id="Shape"></path>
        </g>
    </g>
</svg>