<?xml version="1.0" encoding="UTF-8"?>
<svg width="27px" height="27px" viewBox="0 0 27 27" version="1.1" xmlns="http://www.w3.org/2000/svg" xmlns:xlink="http://www.w3.org/1999/xlink">
    <!-- Generator: Sketch 49 (51002) - http://www.bohemiancoding.com/sketch -->
    <title>扶뒬못</title>
    <desc>Created with Sketch.</desc>
    <defs></defs>
    <g id="Page-1" stroke="none" stroke-width="1" fill="none" fill-rule="evenodd">
        <g id="扶뒬못" fill="#FFFFFF" fill-rule="nonzero">
            <path d="M26.5460833,13.1923523 L14.7337077,0.536155287 C14.4145575,0.194167846 13.9677721,-1.79090906e-16 13.5,0 C13.0322279,1.79090904e-16 12.5854425,0.194167846 12.2662923,0.536155287 L0.453916734,13.1923523 C-0.00460459786,13.6835939 -0.127966195,14.4000666 0.13985883,15.0163715 C0.407683856,15.6326763 1.01564447,16.0313373 1.68762444,16.0312955 L3.37510667,16.0312955 L3.37510667,23.1504063 C3.37461674,24.171532 3.78003782,25.1509758 4.50207824,25.8730208 C5.22411867,26.5950658 6.20355624,27.0004895 7.22467548,26.9999996 L10.1250355,26.9999996 C11.0570062,26.9999996 11.8125178,26.2444832 11.8125178,25.3125066 L11.8125178,19.4062814 L15.1874822,19.4062814 L15.1874822,25.3125066 C15.1874822,26.2444832 15.9429938,26.9999996 16.8749645,26.9999996 L19.7753245,26.9999996 C20.7964438,27.0004895 21.7758813,26.5950658 22.4979218,25.8730208 C23.2199622,25.1509758 23.6253833,24.171532 23.6248933,23.1504063 L23.6248933,16.0312955 L25.3123756,16.0312955 C25.9843555,16.0313373 26.5923161,15.6326763 26.8601412,15.0163715 C27.1279662,14.4000666 27.0046046,13.6835939 26.5460833,13.1923523 Z M21.9374111,14.3438025 L21.9374111,23.15067 C21.9374111,24.344765 20.969412,25.3127703 19.7753245,25.3127703 L16.8749645,25.3127703 L16.8749645,18.6324077 C16.8768101,18.6092046 16.8781285,18.5860016 16.8781285,18.5625349 C16.8781285,18.0965466 16.5003727,17.7187884 16.0343874,17.7187884 L10.9687767,17.7187884 C10.5027913,17.7187884 10.1250355,18.0965466 10.1250355,18.5625349 L10.1250355,25.3125066 L7.22467548,25.3125066 C6.03058803,25.3125066 5.06258889,24.3445013 5.06258889,23.1504063 L5.06258889,14.3438025 L1.68762444,14.3438025 L13.5,1.68760554 L25.3123756,14.3438025 L21.9374111,14.3438025 Z" id="Shape"></path>
        </g>
    </g>
</svg>