<?xml version="1.0" encoding="UTF-8"?>
<svg width="23px" height="25px" viewBox="0 0 23 25" version="1.1" xmlns="http://www.w3.org/2000/svg" xmlns:xlink="http://www.w3.org/1999/xlink">
    <!-- Generator: Sketch 49 (51002) - http://www.bohemiancoding.com/sketch -->
    <title>排序-选中 </title>
    <desc>Created with Sketch.</desc>
    <defs></defs>
    <g id="Page-1" stroke="none" stroke-width="1" fill="none" fill-rule="evenodd">
        <g id="排序-选中-" fill="#FFFFFF" fill-rule="nonzero">
            <path d="M5.99524267,0.259287942 L10.3744634,4.3328191 C10.6637345,4.60140082 10.7585504,5.01933239 10.6133966,5.38599444 C10.4682428,5.7526565 10.112756,5.9931861 9.71758033,5.992122 L7.0247437,5.992122 L7.0247437,15.5034149 C7.04552032,16.1169426 6.72926801,16.6929475 6.19983936,17.0058511 C5.67041072,17.3187547 5.01207054,17.3187547 4.4826419,17.0058511 C3.95321325,16.6929475 3.63696094,16.1169426 3.65773756,15.5034149 L3.65773756,5.992122 L0.961059525,5.992122 C0.566234591,5.99239597 0.211472861,5.75158031 0.0668154507,5.38510055 C-0.0778419601,5.01862078 0.0170851238,4.60116296 0.30609713,4.3328191 L4.68531788,0.257371884 C5.05420734,-0.0857906281 5.62635321,-0.0857906281 5.99524267,0.257371884 L5.99524267,0.259287942 Z M19.3441832,19.0097941 L22.0389405,19.0097941 C22.4337654,19.0095201 22.7885271,19.2503358 22.9331845,19.6168155 C23.077842,19.9832953 22.9829149,20.4007531 22.6939029,20.669097 L18.3146821,24.7426281 C17.9457927,25.0857906 17.3736468,25.0857906 17.0047573,24.7426281 L12.6255366,20.669097 C12.3362655,20.4005152 12.2414496,19.9825837 12.3866034,19.6159216 C12.5317572,19.2492596 12.887244,19.00873 13.2824197,19.0097941 L15.9752563,19.0097941 L15.9752563,9.49850115 C16.0059185,8.59305334 16.7505932,7.87485598 17.6587594,7.87485598 C18.5669255,7.87485598 19.3116002,8.59305334 19.3422624,9.49850115 L19.3422624,19.0097941 L19.3441832,19.0097941 Z" id="Shape"></path>
        </g>
    </g>
</svg>