<?xml version="1.0" encoding="UTF-8"?>
<svg width="30px" height="29px" viewBox="0 0 30 29" version="1.1" xmlns="http://www.w3.org/2000/svg" xmlns:xlink="http://www.w3.org/1999/xlink">
    <!-- Generator: Sketch 49 (51002) - http://www.bohemiancoding.com/sketch -->
    <title>Fill-1 Clipped</title>
    <desc>Created with Sketch.</desc>
    <defs>
        <polygon id="path-1" points="0 0 29.0806053 0 29.0806053 29 0 29"></polygon>
    </defs>
    <g id="Symbols" stroke="none" stroke-width="1" fill="none" fill-rule="evenodd">
        <g id="Fill-1-Clipped">
            <mask id="mask-2" fill="white">
                <use xlink:href="#path-1"></use>
            </mask>
            <g id="path-1"></g>
            <path d="M14.5403027,0 C6.50936415,0 0,6.49236586 0,14.5 C0,22.5086784 6.50936415,29 14.5403027,29 C22.5701939,29 29.0806053,22.5086784 29.0806053,14.5 C29.0806053,6.49236586 22.5701939,0 14.5403027,0 Z M14.5403027,27.5505221 C7.31256274,27.5505221 1.45350667,21.7077061 1.45350667,14.5 C1.45350667,7.29229384 7.31256274,1.45052214 14.5403027,1.45052214 C21.7680426,1.45052214 27.6260514,7.29229384 27.6260514,14.5 C27.6260514,21.7077061 21.7680426,27.5505221 14.5403027,27.5505221 Z M6.54287439,21.7494778 L14.2607016,21.7494778 L14.2607016,19.1136839 L9.11583254,19.1136839 L9.11583254,15.817897 L14.2607016,15.817897 L14.2607016,13.182103 L9.11583254,13.182103 L9.11583254,9.88631619 L14.2607016,9.88631619 L14.2607016,7.25052214 L6.54287439,7.25052214 L6.54287439,21.7494778 Z M15.5466571,21.7494778 L18.1196152,21.7494778 L18.1196152,9.88631619 L20.6915261,9.88631619 L20.6915261,19.1136839 L19.4055707,19.1136839 L19.4055707,21.7494778 L23.2644842,21.7494778 L23.2644842,7.24947785 L15.5466571,7.24947785 L15.5466571,21.7494778 Z" id="Fill-1" fill="#FFFFFF" fill-rule="nonzero" mask="url(#mask-2)"></path>
        </g>
    </g>
</svg>