<?xml version="1.0" encoding="UTF-8"?>
<svg width="17px" height="15px" viewBox="0 0 17 15" version="1.1" xmlns="http://www.w3.org/2000/svg" xmlns:xlink="http://www.w3.org/1999/xlink">
    <!-- Generator: Sketch 49 (51002) - http://www.bohemiancoding.com/sketch -->
    <title>文件夹-2 copy 6</title>
    <desc>Created with Sketch.</desc>
    <defs></defs>
    <g id="Page-1" stroke="none" stroke-width="1" fill="none" fill-rule="evenodd">
        <g id="文件夹-2-copy-6" fill="#B4B6BF" fill-rule="nonzero">
            <path d="M15.1419264,13.9073456 C15.1419264,14.5118093 14.6652131,15 14.0787896,15 L0.79695883,15 L2.65695718,6.16301021 C2.65695718,5.55920643 3.1307153,5.0698958 3.7171582,5.0698958 L15.938788,5.0698958 C16.5253281,5.0698958 17,5.55920645 17,6.16301021 L15.1419264,13.9073456 Z M2.92122976,4.24972502 L14.8756318,4.24972502 L14.8756318,3.17636942 C14.8756318,2.57256565 14.3989186,2.08323501 13.8134089,2.08323501 L7.43834084,2.08323501 L7.43834084,1.09265443 C7.43834084,0.489810604 6.96256077,0 6.3761179,0 L1.06222295,5.55454551e-16 C0.475624524,5.55454551e-16 0,0.489810604 0,1.09265443 L0,13.9073456 L1.85813195,5.3433394 C1.85815136,4.73943562 2.33478688,4.24972502 2.92122976,4.24972502 Z" id="Shape"></path>
        </g>
    </g>
</svg>