<?xml version="1.0" encoding="UTF-8"?>
<svg width="17px" height="17px" viewBox="0 0 17 17" version="1.1" xmlns="http://www.w3.org/2000/svg" xmlns:xlink="http://www.w3.org/1999/xlink">
    <!-- Generator: Sketch 49 (51002) - http://www.bohemiancoding.com/sketch -->
    <title>文件 copy 14</title>
    <desc>Created with Sketch.</desc>
    <defs></defs>
    <g id="Page-1" stroke="none" stroke-width="1" fill="none" fill-rule="evenodd">
        <g id="文件-copy-14" fill="#B4B6BF" fill-rule="nonzero">
            <path d="M6.23625043,10.8997758 C6.53418109,10.8997758 6.75051291,11.2300264 6.75051291,11.6191147 C6.75051291,12.008203 6.53418109,12.3384536 6.23625043,12.3384536 L2.68385425,12.3384536 C2.38592359,12.3384536 2.16959177,12.008203 2.16959177,11.6191147 C2.16959177,11.2300264 2.38592359,10.8997758 2.68385425,10.8997758 L6.23625043,10.8997758 Z M8.47737216,12.9970567 C8.88536638,12.9970567 9.21555705,13.3197153 9.21555705,13.7163955 C9.21555705,14.1130758 8.88536638,14.4357344 8.47737216,14.4357344 L2.90777666,14.4357344 C2.49978244,14.4357344 2.16959177,14.1130758 2.16959177,13.7163955 C2.16959177,13.3197153 2.49978244,12.9970567 2.90777666,12.9970567 L8.47737216,12.9970567 Z M5.80168914,1.10044464 C6.19829748,0.291900171 6.6821976,-0.00798251919 7.45264249,0.00150743936 C8.00485793,0.00909940621 8.44890745,0.00909940621 9.4451724,0.00340543108 C10.674848,-0.00228854406 11.2213705,-0.00228854406 11.9045236,0.0147933813 C13.2252863,0.043263257 16.9921166,3.96261614 16.9921166,5.29500632 C16.9940143,6.13202067 16.9940143,6.80201174 16.990219,8.31281315 C16.984526,10.7289566 16.984526,11.8032199 16.9997072,13.146998 C17.0148884,14.3712027 16.4399012,14.9424982 15.2273044,14.8988444 C14.8724443,14.8893544 14.5024031,14.8855584 14.0583535,14.8874564 C13.8344311,14.8893544 13.6541546,14.8893544 13.2518533,14.8950484 L12.8780168,14.8988444 C12.3220061,14.8988444 12.0563354,14.7356171 12.0791072,14.2174654 C12.0999813,13.7676413 12.3182108,13.6575578 12.8343709,13.6461699 L13.0886557,13.6461699 C13.2992945,13.6347819 13.2992945,13.6347819 13.4947522,13.623394 C15.7206928,13.4924325 15.7320787,13.4753506 15.7320787,10.7915903 C15.7320787,10.415788 15.730181,10.1140073 15.7263857,9.43452625 C15.7244881,8.98470221 15.7225904,8.78541308 15.7225904,8.53487818 C15.7206928,7.66749596 15.7244881,6.9956069 15.7396693,6.34459574 C15.7548504,5.64233881 15.5916527,5.43545771 14.9331691,5.44115169 C14.6902702,5.44115169 14.4815289,5.4601316 13.9976288,5.51896935 C13.9710618,5.52276533 13.9710618,5.52276533 13.9444947,5.52466332 C12.7736462,5.66511471 12.2536907,5.62715487 11.8172318,5.20580071 C11.3712846,4.77875258 11.3333317,4.27958076 11.4794506,3.08194799 C11.5420729,2.56949023 11.5610494,2.35691515 11.5572541,2.10638025 C11.5515612,1.41930725 11.3636941,1.23140607 10.7033127,1.24848799 C9.78105601,1.27316189 9.0618476,1.27505988 7.32739776,1.26746791 C6.64614229,1.26367193 6.31405398,1.26367193 5.90985505,1.26367193 L5.80168914,1.10044464 Z M0.0176594734,9.41554633 C0.0176594734,8.95813033 0.019557121,8.59371592 0.0252500635,7.77188551 C0.0290453586,7.21577394 0.0309430061,6.96713702 0.0309430061,6.65776437 C0.0347383012,5.57021512 0.0271477111,4.73320078 0.00247829318,3.92086032 C-0.0411676,2.70614563 0.490173708,2.15762602 1.71605401,2.09689029 C6.78846586,1.87102928 7.41658719,2.13674812 10.7488563,5.91754761 C11.099921,6.32181984 11.2479376,6.743174 11.240347,7.2916936 C11.2232681,10.4936056 11.2213705,12.919239 11.240347,15.2822387 C11.2555281,16.4400137 10.7146986,16.9999212 9.5647242,16.9999212 C6.410834,16.9828393 4.03308165,16.9809413 1.70846342,16.9999212 C0.543307839,17.0075132 -0.00511229693,16.4665855 0.0100688833,15.3183006 C0.019557121,14.3996726 0.0214547685,13.4601667 0.0214547685,12.2169821 C0.0214547685,11.9019155 0.0214547685,11.6494826 0.019557121,11.0800851 C0.0176594734,10.2487647 0.0176594734,9.87865631 0.0176594734,9.41554633 Z M1.27959508,11.085779 C1.28149273,11.5982368 1.28149273,11.8259958 1.28339038,12.1106946 C1.28528802,13.2020398 1.28149273,14.0314622 1.2682092,14.8400066 C1.25302802,15.5574475 1.40673747,15.7681246 2.05763057,15.7548386 C4.20007463,15.7187768 6.39565282,15.7168788 9.25351,15.7415527 C9.81331602,15.7472467 9.9841043,15.5802234 9.97271841,15.0279078 C9.96323018,14.3958766 9.96323018,13.8910108 9.96702547,12.7579097 C9.97082077,11.7975259 9.97082077,11.3723758 9.96512782,10.8428361 C9.96323018,10.5809132 9.97651371,10.3645422 10.0201596,9.86157438 L10.0239549,9.82361455 C10.1207349,8.69620747 10.0922702,8.21601557 9.82090661,7.84021321 C9.50969242,7.39987913 9.0618476,7.35432733 7.90048731,7.50426868 C7.35206718,7.57449437 7.11675888,7.59537228 6.83970234,7.58398433 C6.03889509,7.55361646 5.77132678,7.2689177 5.75424796,6.47176118 C5.75045266,6.20794034 5.77132678,5.9877733 5.8358468,5.47531554 C5.97817036,4.33272453 5.94211506,3.87341053 5.57017615,3.55075194 C5.18874899,3.21860339 4.74469947,3.18823552 3.61559919,3.30591101 C3.57764624,3.30970699 3.57764624,3.30970699 3.53779564,3.31350298 C3.04250964,3.36474875 2.76924839,3.38183068 2.48270361,3.36474875 C2.45044361,3.36285076 2.4143883,3.36285076 2.36504947,3.36474875 C2.3422777,3.36474875 2.3422777,3.36474875 2.31760828,3.36664674 C2.19995413,3.37234072 2.14871765,3.37234072 2.08040234,3.36285076 C1.45038336,3.27744113 1.25492566,3.51658809 1.2682092,4.23782494 C1.29477626,5.2779244 1.29667391,6.11114276 1.28718567,7.98825656 C1.28339038,8.72277936 1.28339038,9.05113192 1.28339038,9.45920014 C1.27579979,9.92420811 1.27769743,10.2829285 1.27959508,11.085779 Z" id="Shape"></path>
        </g>
    </g>
</svg>