<?xml version="1.0" encoding="UTF-8"?>
<svg width="15px" height="17px" viewBox="0 0 15 17" version="1.1" xmlns="http://www.w3.org/2000/svg" xmlns:xlink="http://www.w3.org/1999/xlink">
    <!-- Generator: Sketch 49 (51002) - http://www.bohemiancoding.com/sketch -->
    <title>音频-2 copy 6</title>
    <desc>Created with Sketch.</desc>
    <defs></defs>
    <g id="Page-1" stroke="none" stroke-width="1" fill="none" fill-rule="evenodd">
        <g id="音频-2-copy-6" fill="#B4B6BF" fill-rule="nonzero">
            <path d="M13.4362934,0.0615769538 L6.29619415,2.32065948 C5.42746828,2.57640467 4.73248759,3.5056122 4.73248759,4.39219553 L4.73248759,12.1497997 C4.73248759,12.1497997 4.21125207,11.7917564 3.06122449,11.9622532 C1.36514065,12.2094736 0,13.5478734 0,14.9459471 C0,16.3440208 1.37341423,17.2050296 3.06122449,16.9578093 C4.75730833,16.7105889 5.9900717,15.4148133 5.9900717,14.0167396 L5.9900717,6.52340547 C5.9900717,5.90109217 6.71814672,5.63682213 6.71814672,5.63682213 L13.030888,3.59938544 C13.030888,3.59938544 13.7341423,3.36068993 13.7341423,4.01710259 L13.7341423,10.2061362 C13.7341423,10.2061362 13.0888031,9.83104328 11.9387755,9.96744072 C10.2426917,10.1805617 8.87755102,11.493387 8.87755102,12.8914607 C8.87755102,14.2895345 10.2509653,15.1846426 11.9387755,14.9715216 C13.6348593,14.7584006 15,13.4455753 15,12.0475016 L15,1.21243032 C15,0.334371825 14.2967457,-0.185643398 13.4362934,0.0615769538 Z" id="Shape"></path>
        </g>
    </g>
</svg>