<?xml version="1.0" encoding="UTF-8"?>
<svg width="17px" height="14px" viewBox="0 0 17 14" version="1.1" xmlns="http://www.w3.org/2000/svg" xmlns:xlink="http://www.w3.org/1999/xlink">
    <!-- Generator: Sketch 49 (51002) - http://www.bohemiancoding.com/sketch -->
    <title>图片 copy</title>
    <desc>Created with Sketch.</desc>
    <defs></defs>
    <g id="Page-1" stroke="none" stroke-width="1" fill="none" fill-rule="evenodd">
        <g id="图片-copy" fill="#B4B6BF" fill-rule="nonzero">
            <path d="M0,0 L0,14 L17,14 L17,0 L0,0 Z M15.9375181,12.9230809 L1.06248193,12.9230809 L1.06248193,1.07691909 L15.9375181,1.07691909 L15.9375181,12.9230809 Z M11.6874373,3.76926854 C11.6874373,4.66112448 12.400796,5.38457828 13.2812367,5.38457828 C14.1616775,5.38457828 14.8750361,4.66110726 14.8750361,3.76926854 C14.8750361,2.87689572 14.1616775,2.1538382 13.2812367,2.1538382 C12.400796,2.1538382 11.6874373,2.87698185 11.6874373,3.76926854 Z M14.8750191,11.8461963 L2.12494687,11.8461963 L5.31246068,3.23074006 L9.56243943,8.61543895 L11.6874373,7.0000086 L14.8750191,11.8461963 Z" id="Shape"></path>
        </g>
    </g>
</svg>