<?xml version="1.0" encoding="UTF-8"?>
<svg width="15px" height="17px" viewBox="0 0 15 17" version="1.1" xmlns="http://www.w3.org/2000/svg" xmlns:xlink="http://www.w3.org/1999/xlink">
    <!-- Generator: Sketch 49 (51002) - http://www.bohemiancoding.com/sketch -->
    <title>文件 copy 14</title>
    <desc>Created with Sketch.</desc>
    <defs></defs>
    <g id="Page-1" stroke="none" stroke-width="1" fill="none" fill-rule="evenodd">
        <g id="文件-copy-14" fill="#B4B6BF" fill-rule="nonzero">
            <path d="M10.7147179,0 L10.7147179,4.25 L15,4.25 L10.7147179,0 Z M9.64301921,0 L2.14301921,0 C0.959548872,0.000207043547 0.000208780777,0.951564626 0,2.1251875 L0,14.8748125 C0.000208780777,16.0484354 0.959548872,16.999793 2.14301921,17 L12.8566026,17 C14.0402206,17 14.9997912,16.0485818 15,14.8748125 L15,5.31240625 L9.64301921,5.31240625 L9.64301921,0 Z M10.7147179,13.8124062 L4.28603842,13.8124062 L4.28603842,12.75 L10.7147179,12.75 L10.7147179,13.8124062 Z M10.7147179,10.6251875 L4.28603842,10.6251875 L4.28603842,9.56278126 L10.7147179,9.56278126 L10.7147179,10.6251875 Z M10.7147179,6.37481249 L10.7147179,7.43721874 L4.28603842,7.43721874 L4.28603842,6.37481249 L10.7147179,6.37481249 Z" id="Shape"></path>
        </g>
    </g>
</svg>