<?xml version="1.0" encoding="UTF-8"?>
<svg width="17px" height="10px" viewBox="0 0 17 10" version="1.1" xmlns="http://www.w3.org/2000/svg" xmlns:xlink="http://www.w3.org/1999/xlink">
    <!-- Generator: Sketch 49 (51002) - http://www.bohemiancoding.com/sketch -->
    <title>视频 copy</title>
    <desc>Created with Sketch.</desc>
    <defs></defs>
    <g id="Page-1" stroke="none" stroke-width="1" fill="none" fill-rule="evenodd">
        <g id="视频-copy" fill="#B4B6BF" fill-rule="nonzero">
            <path d="M16.3997681,0.146165213 C16.3997681,0.146165213 11.7268835,3.78510799 11.3327848,4.26563488 L11.3327848,0.713731063 C11.3327848,0.319499065 11.0158478,0 10.6249991,0 L0.707707929,1.86445922e-08 C0.31682025,1.86445922e-08 0,0.319460918 0,0.713731082 L0,9.28621172 C0,9.68040555 0.316859179,10 0.707707929,10 L10.6249991,10 C11.0158867,10 11.3327848,9.68040555 11.3327848,9.28621172 L11.3327848,5.77887673 C11.7268835,6.19529775 16.3997487,9.92608745 16.3997487,9.92608745 C17.1173816,9.92608745 16.9914903,9.78949998 16.9914903,9.06628659 L16.9914903,1.0881017 C16.9915097,0.364277782 17.1174399,0.146165213 16.3997681,0.146165213 Z" id="Shape"></path>
        </g>
    </g>
</svg>