<?xml version="1.0" encoding="UTF-8"?>
<svg width="16px" height="16px" viewBox="0 0 16 16" version="1.1" xmlns="http://www.w3.org/2000/svg" xmlns:xlink="http://www.w3.org/1999/xlink">
    <!-- Generator: Sketch 49 (51002) - http://www.bohemiancoding.com/sketch -->
    <title>压缩文件 copy 3</title>
    <desc>Created with Sketch.</desc>
    <defs></defs>
    <g id="Page-1" stroke="none" stroke-width="1" fill="none" fill-rule="evenodd">
        <g id="压缩文件-copy-3" fill="#B4B6BF" fill-rule="nonzero">
            <path d="M14.6999973,0 L5.99992705,0 L5.99992705,1.4000041 L7.39993982,1.4000041 L7.39993982,2.79997174 L5.99992705,2.79997174 L5.99992705,4.20019468 L7.39993982,4.20019468 L7.39993982,5.60016232 L5.99992705,5.60016232 L5.99992705,7.00003876 L7.39993982,7.00003876 L7.39993982,11.0000114 C7.39993982,11.2000328 7.20012037,11.3002259 7.1001468,11.3002259 L4.99993617,11.3002259 C4.79991611,11.3002259 4.70014315,11.1002227 4.70014317,11.0000114 L4.70014317,8.40006109 L6.10015592,8.40006109 L6.10015592,7.00003876 L4.70014317,7.00003876 L4.70014317,5.60016232 L6.10015592,5.60016232 L6.10015592,4.20019468 L4.70014317,4.20019468 L4.70014317,2.79997174 L6.10015592,2.79997174 L6.10015592,1.4000041 L4.70014317,1.4000041 L4.70014317,0 L1.1999927,0 C0.600005467,0 0,0.499998859 0,1.19998268 L0,14.7999991 C0,15.3999904 0.500013671,16 1.1999927,16 L14.8000073,16 C15.3999945,16 16,15.5002017 16,14.7999991 L16,1.19998268 C15.7999799,0.60000957 15.300021,3.79887441e-16 14.6999973,0 Z" id="Shape"></path>
        </g>
    </g>
</svg>