<?xml version="1.0" encoding="UTF-8"?>
<svg width="17px" height="16px" viewBox="0 0 17 16" version="1.1" xmlns="http://www.w3.org/2000/svg" xmlns:xlink="http://www.w3.org/1999/xlink">
    <!-- Generator: Sketch 49 (51002) - http://www.bohemiancoding.com/sketch -->
    <title>评论</title>
    <desc>Created with Sketch.</desc>
    <defs></defs>
    <g id="Page-1" stroke="none" stroke-width="1" fill="none" fill-rule="evenodd">
        <g id="评论" fill="#B4B6BF" fill-rule="nonzero">
            <path d="M4.88628954,16 C4.81574296,16 4.74479035,15.9839058 4.67820251,15.951065 C4.50178531,15.8640695 4.38850476,15.674963 4.38850476,15.4666086 L4.38850476,13.1933068 C4.38850476,12.9110063 4.17412436,12.6814469 3.9102091,12.6814469 L1.47406824,12.6814469 C0.661209233,12.6814469 0,11.972977 0,11.1026955 L0,1.57886009 C0,0.708361086 0.661209233,0 1.47406824,0 L15.5264393,0 C16.3387907,0 17,0.708361086 17,1.57886009 L17,11.1028042 C17,11.9730858 16.3387907,12.6815556 15.5264393,12.6815556 L8.86115788,12.6815556 C8.74696378,12.6815556 8.63611938,12.7250533 8.54912885,12.8055242 L5.21019478,15.8715728 C5.11823046,15.956176 5.00302129,16 4.88628954,16 Z" id="Shape"></path>
        </g>
    </g>
</svg>