<?xml version="1.0" standalone="no"?><!DOCTYPE svg PUBLIC "-//W3C//DTD SVG 1.1//EN" "http://www.w3.org/Graphics/SVG/1.1/DTD/svg11.dtd"><svg t="1523592337099" class="icon" style="" viewBox="0 0 1024 1024" version="1.1" xmlns="http://www.w3.org/2000/svg" p-id="1912" xmlns:xlink="http://www.w3.org/1999/xlink" width="18" height="18"><defs><style type="text/css"></style></defs><path d="M511.289 388.903c-3.261 4.374-4.901 7.249-7.162 9.502-105.151 105.249-210.382 210.422-315.514 315.691-10.8 10.817-22.985 16.557-38.469 13.226-28.638-6.162-40.504-40.191-21.832-62.748 2.049-2.481 4.412-4.708 6.694-6.99 114.891-114.907 229.788-229.808 344.69-344.71 20.901-20.901 42.279-20.917 63.163-0.033 115.478 115.472 230.901 230.993 346.481 346.356 11.467 11.446 16.546 24.516 12.538 40.202-6.957 27.239-39.992 37.862-61.926 20.19-2.712-2.184-5.135-4.748-7.604-7.216-104.634-104.624-209.27-209.247-313.854-313.926-2.26-2.266-3.917-5.144-7.205-9.547v0z" p-id="1913" fill="#ffffff"></path></svg>