<?xml version="1.0" encoding="UTF-8"?>
<svg width="70px" height="62px" viewBox="0 0 70 62" version="1.1" xmlns="http://www.w3.org/2000/svg" xmlns:xlink="http://www.w3.org/1999/xlink">
    <!-- Generator: Sketch 49 (51002) - http://www.bohemiancoding.com/sketch -->
    <title>上传</title>
    <desc>Created with Sketch.</desc>
    <defs></defs>
    <g id="Page-1" stroke="none" stroke-width="1" fill="none" fill-rule="evenodd">
        <g id="上传" fill="#9B9B9B" fill-rule="nonzero">
            <path d="M56.2499426,47.1199778 L46.2499082,47.1199778 C45.4165519,47.1199778 44.9998738,46.7092605 44.9998738,45.8799428 C44.9998738,45.0532527 45.4165519,44.6399078 46.2499082,44.6399078 L56.2499426,44.6399078 C59.3753096,44.6399078 62.0312615,43.5546681 64.2186009,41.3848257 C66.4059404,39.2143464 67.4999312,36.5795606 67.4999312,33.4799109 C67.4999312,30.7928896 66.6405677,28.4193608 64.9219209,26.3494507 C63.2032741,24.2828053 60.9892852,22.9945161 58.2812385,22.4747095 C57.4478823,22.2676787 57.1352332,21.8028148 57.3439335,21.0799588 C57.4479626,20.5627798 57.4998968,19.7394341 57.4998968,18.5999683 C57.4998968,14.159794 55.9112061,10.3623709 52.734547,7.20714141 C49.5572459,4.05525632 45.7292011,2.47991095 41.249851,2.47991095 C37.7085283,2.47991095 34.4792125,3.56451363 31.5625459,5.73435598 C28.6458792,7.90483531 26.6665176,10.6427384 25.6251835,13.9494189 C25.6251835,14.3627638 25.364549,14.672912 24.8438417,14.8799428 C24.2185436,14.8799428 23.8018654,14.7794532 23.5938073,14.5697947 C22.1351529,13.1228084 20.3124771,12.3999523 18.1251376,12.3999523 C15.8331269,12.3999523 13.9057799,13.1744069 12.3438188,14.7245104 C10.7811353,16.2746935 9.99979354,18.1892509 9.99979354,20.4595829 C9.99979354,21.0798791 10.051808,21.5448225 10.1557569,21.8543336 C10.1557569,22.4746298 9.89576447,22.9395733 9.3750573,23.2497214 C4.79175834,25.1094156 2.49974767,28.5198504 2.49974767,33.4799109 C2.49974767,36.5795605 3.59373847,39.2143463 5.78107794,41.3848257 C7.9684174,43.5546681 10.6250917,44.6399078 13.7497362,44.6399078 L31.2497362,44.6399078 C32.0830925,44.6399078 32.4997706,45.0532527 32.4997706,45.8799428 C32.4997706,46.7092605 32.0830925,47.1199778 31.2497362,47.1199778 L13.749977,47.1199778 C9.89600528,47.1199778 6.64068235,45.801908 3.98465021,43.1672019 C1.32797595,40.532416 0,37.3031332 0,33.4799905 C0,27.8996338 2.49998857,23.8179414 7.49996562,21.234754 L7.49996562,20.4596624 C7.49996562,17.5696713 8.54194192,15.0896012 10.6253326,13.019691 C12.7086429,10.9530456 15.2086315,9.92004144 18.1252982,9.92004144 C20.2086086,9.92004144 22.1353135,10.4881022 23.9059748,11.6249403 C25.3646292,8.11457334 27.6559977,5.29529124 30.7812844,3.17704732 C33.9059289,1.06206814 37.3959595,0 41.2499312,0 C46.4586085,0 50.885302,1.80809579 54.5312959,5.42492435 C58.1772898,9.04438061 59.9999656,13.433036 59.9999656,18.6000478 C59.9999656,19.3229039 59.9479511,19.894946 59.8440023,20.3049467 C62.8646981,21.1349015 65.312672,22.7624822 67.1873624,25.1876095 C69.062695,27.6153645 70,30.3797038 70,33.4800701 C70,37.3032129 68.6720241,40.5324956 66.0153498,43.1672815 C63.3592373,45.8019081 60.1039143,47.1199778 56.2499426,47.1199778 Z M49.6872821,32.5494666 L39.6872477,22.6295048 L39.5312843,22.6295048 C39.4272553,22.5296523 39.3225841,22.4747891 39.2186352,22.4747891 C38.9059861,22.3749365 38.5939792,22.3749365 38.2813302,22.4747891 C38.1773011,22.4747891 38.0206957,22.5296523 37.8126375,22.6295048 L27.8126032,32.5494666 C27.1873051,33.1697628 27.1873051,33.7895016 27.8126032,34.4097979 C28.4372592,35.0294571 29.0626376,35.0294571 29.6872936,34.4097979 L37.4999885,26.504883 L37.4999885,60.759965 C37.4999885,61.5892827 37.9166666,62 38.7500229,62 C39.5833792,62 40.0000573,61.5892827 40.0000573,60.759965 L40.0000573,26.504883 L47.8127522,34.4097979 C48.2294303,34.6194564 48.5420794,34.719946 48.7500573,34.719946 C48.9587575,34.719946 49.2707644,34.6194564 49.6873623,34.4097979 C50.3125802,33.7895016 50.3125802,33.1698424 49.6872821,32.5494666 Z" id="Shape"></path>
        </g>
    </g>
</svg>