<?xml version="1.0" encoding="UTF-8"?>
<svg width="23px" height="21px" viewBox="0 0 23 21" version="1.1" xmlns="http://www.w3.org/2000/svg" xmlns:xlink="http://www.w3.org/1999/xlink">
    <!-- Generator: Sketch 49 (51002) - http://www.bohemiancoding.com/sketch -->
    <title>设置</title>
    <desc>Created with Sketch.</desc>
    <defs></defs>
    <g id="Page-1" stroke="none" stroke-width="1" fill="none" fill-rule="evenodd">
        <g id="设置" fill="#828CA6" fill-rule="nonzero">
            <path d="M22.7555792,8.33152174 C22.6211477,7.64381271 22.1873007,7.20192308 21.6465197,7.2048495 L21.5304198,7.2048495 C19.9814028,7.2048495 18.716525,5.98160535 18.716525,4.48327759 C18.716525,3.99749164 18.9578905,3.45025084 18.9609458,3.44732441 C19.2389745,2.84155518 19.0251063,2.10117057 18.4629384,1.72073579 L15.5787726,0.16680602 C15.3557386,0.0731605351 15.1510361,0.0351170569 14.9371679,0.0351170569 C14.4941552,0.0351170569 14.0603082,0.204849498 13.776169,0.491638796 C13.4645324,0.804765886 12.3860255,1.69439799 11.5549947,1.69439799 C10.7178533,1.69439799 9.63323592,0.784280936 9.3185441,0.468227425 C9.03134963,0.175585284 8.59750266,0 8.14837938,0 C7.93756642,0 7.7389745,0.0380434783 7.55565887,0.111204013 L4.56761424,1.69439799 C3.96878321,2.09531773 3.75491498,2.83862876 4.03294368,3.44147157 C4.03599894,3.44732441 4.27736451,3.98871237 4.27736451,4.48035117 C4.27736451,5.98160535 3.01554198,7.20192308 1.46346971,7.20192308 L1.36570138,7.20192308 C0.809643996,7.20192308 0.378852285,7.64381271 0.241365569,8.33152174 C0.232199787,8.3812709 0,9.57232441 0,10.5087793 C0,11.4393813 0.229144527,12.6333612 0.241365569,12.6860368 C0.375797024,13.3737458 0.809643996,13.8156355 1.34736982,13.8156355 L1.46346971,13.8156355 C3.01554198,13.8156355 4.27736451,15.0388796 4.27736451,16.5372074 C4.27736451,17.0229933 4.03599894,17.5702341 4.03294368,17.5731605 C3.75491498,18.1760033 3.96572795,18.9193144 4.52789586,19.2997492 L7.35706695,20.833194 C7.58010096,20.9297659 7.78174814,20.9678094 7.99561637,20.9678094 C8.44168438,20.9678094 8.88164187,20.7892977 9.16578108,20.4908027 C9.56296493,20.0723244 10.6414718,19.2119565 11.4388948,19.2119565 C12.3004782,19.2119565 13.4064825,20.1776756 13.7272848,20.514214 C14.0144793,20.8185619 14.4513815,21 14.90356,21 C15.114373,21 15.3129649,20.9619565 15.4962806,20.8858696 L18.4323858,19.3202341 C19.0281615,18.9193144 19.245085,18.1789298 18.9670563,17.5731605 C18.9640011,17.5673077 18.7226355,17.0171405 18.7226355,16.5342809 C18.7226355,15.0330268 19.984458,13.812709 21.5365303,13.812709 L21.6342986,13.812709 C22.190356,13.812709 22.624203,13.367893 22.7586344,12.6831104 C22.7616897,12.6714047 23,11.4627926 23,10.5058528 C22.9969447,9.56939799 22.7678002,8.3812709 22.7555792,8.33152174 Z M11.5061105,14.7403846 C9.26049416,14.7403846 7.43344846,12.9757525 7.43344846,10.8043478 C7.43344846,8.63294314 9.26049416,6.86831104 11.5061105,6.86831104 C13.7486716,6.86831104 15.5787726,8.63294314 15.5787726,10.8043478 C15.5787726,12.9757525 13.7547821,14.7403846 11.5061105,14.7403846 Z" id="Shape"></path>
        </g>
    </g>
</svg>