<?xml version="1.0" encoding="UTF-8"?>
<svg width="21px" height="19px" viewBox="0 0 21 19" version="1.1" xmlns="http://www.w3.org/2000/svg" xmlns:xlink="http://www.w3.org/1999/xlink">
    <!-- Generator: Sketch 49 (51002) - http://www.bohemiancoding.com/sketch -->
    <title>成员管理</title>
    <desc>Created with Sketch.</desc>
    <defs></defs>
    <g id="Page-1" stroke="none" stroke-width="1" fill="none" fill-rule="evenodd">
        <g id="成员管理" fill="#828CA6" fill-rule="nonzero">
            <path d="M16.8342059,10.2996908 L16.2331588,10.0319089 L16.6876091,9.60177116 C17.4670157,8.86589823 17.8970332,7.91706494 17.8970332,6.93027832 C17.8970332,5.03050323 16.191623,3.31627776 14,3 C14.2565445,3.35212258 14.4593368,3.71267922 14.6230366,4.10275513 C15.9570681,4.5118077 16.8659686,5.65462468 16.8659686,6.93027832 C16.8659686,8.14478493 16.0328098,9.25386562 14.7403141,9.75780152 C14.4935428,9.83792522 14.3469459,9.99184706 14.3469459,10.1689626 C14.3469459,10.3460782 14.5033159,10.5126511 14.7354276,10.5780152 L14.8917976,10.6075344 C17.8799302,11.2548496 19.9664921,13.5489176 19.9664921,16.1887827 L19.9664921,17.1207478 L19.0380454,17.1207478 C19.086911,17.4117234 19.1186736,17.7069159 19.1357766,18 L20.4844677,18 C20.7678883,18 21,17.8017993 21,17.5614282 L21,16.1908912 C21,13.6965139 19.4045375,11.4403992 16.8342059,10.2996908 Z" id="Shape"></path>
            <path d="M14.5222321,11.2303571 C13.7641738,10.422433 12.8480061,9.80111607 11.8040515,9.38549107 C11.4531787,9.24553571 11.0893107,9.13102679 10.7146133,9.03984375 C11.1737801,8.81294643 11.5982928,8.51395089 11.9729902,8.14709821 C12.8934896,7.24587054 13.4003058,6.04776786 13.4003058,4.77332589 C13.4003058,3.49888393 12.8934896,2.30078125 11.9729902,1.39955357 C11.0524908,0.498325893 9.828768,0 8.52490763,0 C7.22104727,0 5.99949038,0.496205357 5.07899095,1.39743304 C4.15849153,2.29866071 3.65167537,3.49676339 3.65167537,4.77120536 C3.65167537,6.04564732 4.15849153,7.24375 5.07899095,8.14497768 C5.44719072,8.50546875 5.86303988,8.80022321 6.31354313,9.025 C4.74544528,9.39609375 3.40259906,10.180692 2.35864441,11.3512277 C1.59842018,12.203683 1.01146643,13.2448661 0.615110205,14.4493304 C0.205758695,15.6856027 0,17.0872768 0,18.6183036 C0,18.8282366 0.175436361,19 0.389858581,19 L16.6101414,19 C16.8245636,19 17,18.8282366 17,18.6183036 C17,17.0257813 16.7790801,15.5795759 16.3437381,14.3178571 C15.925723,13.1112723 15.3127787,12.0743304 14.5222321,11.2303571 Z" id="Shape"></path>
        </g>
    </g>
</svg>