<?xml version="1.0" encoding="UTF-8"?>
<svg width="22px" height="17px" viewBox="0 0 22 17" version="1.1" xmlns="http://www.w3.org/2000/svg" xmlns:xlink="http://www.w3.org/1999/xlink">
    <!-- Generator: Sketch 49 (51002) - http://www.bohemiancoding.com/sketch -->
    <title>竖排序-未选中 copy</title>
    <desc>Created with Sketch.</desc>
    <defs></defs>
    <g id="Page-1" stroke="none" stroke-width="1" fill="none" fill-rule="evenodd">
        <g id="竖排序-未选中-copy" fill="#FFFFFF" fill-rule="nonzero">
            <path d="M5.87929796,0.395329319 L21.4310373,0.395329319 C21.7451571,0.395329319 22,0.660947768 22,0.98834951 L22,1.38370505 C22,1.71110682 21.7451571,1.97672524 21.4310373,1.97672524 L5.87929796,1.97672527 C5.56497663,1.97672527 5.31033528,1.71110682 5.31033528,1.38370508 L5.31033528,0.988349535 C5.31033528,0.660947742 5.56497663,0.395329319 5.87929796,0.395329319 Z M5.87929796,7.511598 L21.4310373,7.511598 C21.7451571,7.511598 22,7.7772427 22,8.10461819 L22,8.49997374 C22,8.82737551 21.7451571,9.09299393 21.4310373,9.09299393 L5.87929796,9.09299395 C5.56497663,9.09299395 5.31033528,8.82737551 5.31033528,8.49997376 L5.31033528,8.10461822 C5.31033528,7.7772427 5.56497663,7.511598 5.87929796,7.511598 Z M5.87929796,15.0232222 L21.4310373,15.0232222 C21.7451571,15.0232222 22,15.2888407 22,15.6162424 L22,16.0116242 C22,16.339026 21.7451571,16.6046444 21.4310373,16.6046444 L5.87929796,16.6046445 C5.56497663,16.6046445 5.31033528,16.339026 5.31033528,16.0116243 L5.31033528,15.6162424 C5.31033528,15.2888669 5.56497663,15.0232222 5.87929796,15.0232222 Z M1.13792539,0 C1.76636653,0 2.27585078,0.531236871 2.27585078,1.18604041 C2.27585078,1.84084394 1.76636653,2.37208081 1.13792539,2.37208081 C0.509509434,2.37208081 0,1.84084394 0,1.18604041 C-2.51845228e-05,0.531236871 0.509509434,0 1.13792539,0 Z M1.13792539,7.11626871 C1.76636653,7.11626871 2.27585078,7.64753183 2.27585078,8.30230912 C2.27585078,8.95711265 1.76636653,9.48834952 1.13792539,9.48834952 C0.509509434,9.48834952 0,8.9571389 0,8.30230912 C-2.51845228e-05,7.64753183 0.509509434,7.11626871 1.13792539,7.11626871 Z M1.13792539,14.6278929 C1.76636653,14.6278929 2.27585078,15.1587622 2.27585078,15.8139596 C2.27585078,16.4691045 1.76636653,17 1.13792539,17 C0.509509434,17 0,16.4691045 0,15.8139596 C-2.51845228e-05,15.1587622 0.509509434,14.6278929 1.13792539,14.6278929 Z" id="Shape"></path>
        </g>
    </g>
</svg>