<?xml version="1.0" encoding="UTF-8"?>
<svg width="22px" height="19px" viewBox="0 0 22 19" version="1.1" xmlns="http://www.w3.org/2000/svg" xmlns:xlink="http://www.w3.org/1999/xlink">
    <!-- Generator: Sketch 49 (51002) - http://www.bohemiancoding.com/sketch -->
    <title>音量</title>
    <desc>Created with Sketch.</desc>
    <defs></defs>
    <g id="Symbols" stroke="none" stroke-width="1" fill="none" fill-rule="evenodd">
        <g id="音量" fill="#FFFFFF" fill-rule="nonzero">
            <path d="M14.302583,0.1019678 C14.1623616,-0.0339892665 13.8819188,-0.0339892665 13.601476,0.1019678 L6.0295203,5.40429338 L0.701107011,5.40429338 C0.280442804,5.40429338 0,5.67620751 0,6.08407871 L0,12.881932 C0,13.2898032 0.280442804,13.5617174 0.701107011,13.5617174 L6.0295203,13.5617174 L13.601476,18.8640429 C13.7416974,19 13.8819188,19 14.0221402,19 C14.1623616,19 14.302583,19 14.302583,18.8640429 C14.5830258,18.7280859 14.7232472,18.4561717 14.7232472,18.3202147 L14.7232472,0.645796064 C14.7232472,0.373881932 14.5830258,0.1019678 14.302583,0.1019678 Z M17.5276753,6.08407871 L16.9667897,5.54025045 L15.9852399,6.49194991 L16.5461255,7.03577818 C17.9483395,8.39534884 17.9483395,10.5706619 16.5461255,11.9302326 L15.9852399,12.4740608 L16.9667897,13.4257603 L17.5276753,12.881932 C19.4907749,10.9785331 19.4907749,7.98747764 17.5276753,6.08407871 Z" id="Shape"></path>
            <path d="M19.1034483,3 L18.137931,3.91304348 L18.6896552,4.43478261 C19.9310345,5.60869565 20.6206897,7.30434783 20.6206897,9 C20.6206897,10.6956522 19.9310345,12.3913043 18.5517241,13.5652174 L18,14.0869565 L18.9655172,15 L19.5172414,14.4782609 C21.1724138,13.0434783 22,11.0869565 22,9 C22,6.91304348 21.1724138,4.95652174 19.6551724,3.52173913 L19.1034483,3 Z" id="Shape"></path>
        </g>
    </g>
</svg>