<?xml version="1.0" encoding="UTF-8"?>
<svg width="14px" height="16px" viewBox="0 0 14 16" version="1.1" xmlns="http://www.w3.org/2000/svg" xmlns:xlink="http://www.w3.org/1999/xlink">
    <!-- Generator: Sketch 49 (51002) - http://www.bohemiancoding.com/sketch -->
    <title>Group 2</title>
    <desc>Created with Sketch.</desc>
    <defs></defs>
    <g id="Page-1" stroke="none" stroke-width="1" fill="none" fill-rule="evenodd">
        <g id="Group-2" transform="translate(1.000000, 1.000000)">
            <g id="音量小" transform="translate(1.000000, 0.000000)" fill="#50E3C2" fill-rule="nonzero">
                <path d="M6.91498813,0.0533985651 C6.64070493,-0.0570905947 6.34259173,0.00773222898 6.13295469,0.212234256 L2.52714486,3.75037865 L0.733244545,3.75037865 C0.32825791,3.75037865 0,4.06339406 0,4.45793193 L0,10.5429452 C0,10.9374659 0.328257893,11.2504985 0.733244545,11.2504985 L2.52714486,11.2504985 L6.15025835,14.7886429 C6.29062785,14.925556 6.47833986,15 6.66938561,15 C6.76373551,15 6.82441294,14.9831629 6.91500578,14.9466195 C7.18921842,14.8360445 7.33341553,14.5763065 7.33341553,14.2873097 L7.33341553,0.713567451 C7.3333979,0.424570678 7.18920077,0.163973636 6.91498813,0.0533985651 Z M5.86673242,12.5607511 L3.31565173,10.03486 C3.17805152,9.90064424 3.02596986,9.82188785 2.83125525,9.82188785 L1.46668311,9.82188785 L1.46668311,5.17897209 L2.83125525,5.17897209 C3.02595223,5.17897209 3.17805152,5.10021569 3.31565173,4.96599997 L5.86673242,2.44010879 L5.86673242,12.5607511 Z M9.77118463,10.5253349 C9.62633487,10.6828134 9.4259935,10.7629614 9.22473489,10.7629614 C9.05044599,10.7629614 8.87561029,10.7027945 8.73559358,10.5806225 C8.43391734,10.3172421 8.40857039,9.86559558 8.67883195,9.5718054 C10.5627959,7.52398472 8.75670722,5.51375546 8.67883195,5.42915762 C8.40857039,5.13535026 8.43391734,4.68370368 8.73559358,4.42042644 C9.03702288,4.1569774 9.50099364,4.18175198 9.77109644,4.47562808 C10.7336276,5.52177885 11.9723294,8.13261148 9.77118463,10.5253349 Z" id="Shape"></path>
            </g>
            <path d="M0.5,0.5 L11.5,13.5" id="Line-2" stroke="#50E3C2" stroke-width="1.5" stroke-linecap="round"></path>
        </g>
    </g>
</svg>