<?xml version="1.0" encoding="UTF-8"?>
<svg width="19px" height="19px" viewBox="0 0 19 19" version="1.1" xmlns="http://www.w3.org/2000/svg" xmlns:xlink="http://www.w3.org/1999/xlink">
    <!-- Generator: Sketch 49 (51002) - http://www.bohemiancoding.com/sketch -->
    <title>帮助</title>
    <desc>Created with Sketch.</desc>
    <defs></defs>
    <g id="Page-1" stroke="none" stroke-width="1" fill="none" fill-rule="evenodd">
        <g id="水印开关" transform="translate(-779.000000, -665.000000)" fill="#9B9B9B" fill-rule="nonzero">
            <g id="帮助" transform="translate(779.000000, 665.000000)">
                <path d="M9.5,19 C4.275,19 0,14.725 0,9.5 C0,4.275 4.275,0 9.5,0 C14.725,0 19,4.275 19,9.5 C19,14.725 14.725,19 9.5,19 Z M9.5,1.1875 C4.86875,1.1875 1.1875,4.86875 1.1875,9.5 C1.1875,14.13125 4.86875,17.8125 9.5,17.8125 C14.13125,17.8125 17.8125,14.13125 17.8125,9.5 C17.8125,4.86875 14.13125,1.1875 9.5,1.1875 Z" id="Shape"></path>
                <path d="M12.2653061,5.74074074 C12.755102,6.2345679 13,6.85185185 13,7.71604938 C13,8.33333333 12.877551,8.95061728 12.5102041,9.32098765 C12.5102041,9.44444444 12.1428571,9.81481481 11.4081633,10.4320988 C11.1632653,10.6790123 11.0408163,10.8024691 10.9183673,11.0493827 C10.7959184,11.2962963 10.6734694,11.6666667 10.6734694,12.037037 L10.6734694,12.2839506 L9.20408163,12.2839506 L9.20408163,12.037037 C9.20408163,11.5432099 9.32653061,11.0493827 9.44897959,10.8024691 C9.69387755,10.4320988 10.1836735,9.81481481 11.0408163,9.07407407 L11.2857143,8.7037037 C11.5306122,8.33333333 11.6530612,8.08641975 11.6530612,7.71604938 C11.6530612,7.22222222 11.5306122,6.85185185 11.2857143,6.60493827 C11.0408163,6.35802469 10.5510204,6.2345679 10.0612245,6.2345679 C9.57142857,6.2345679 9.08163265,6.48148148 8.83673469,6.85185185 C8.59183673,7.09876543 8.46938776,7.59259259 8.46938776,8.20987654 L7,8.20987654 C7,7.22222222 7.24489796,6.48148148 7.85714286,5.86419753 C8.46938776,5.24691358 9.20408163,5 10.1836735,5 C11.0408163,5 11.7755102,5.24691358 12.2653061,5.74074074 Z M10.6734694,13.2716049 C10.9183673,13.3950617 10.9183673,13.6419753 10.9183673,14.0123457 C10.9183673,14.2592593 10.7959184,14.5061728 10.6734694,14.7530864 C10.4285714,14.8765432 10.1836735,15 9.93877551,15 C9.69387755,15 9.44897959,14.8765432 9.20408163,14.7530864 C8.95918367,14.5061728 8.95918367,14.382716 8.95918367,14.0123457 C8.95918367,13.7654321 9.08163265,13.5185185 9.20408163,13.2716049 C9.32653061,13.1481481 9.57142857,13.0246914 9.93877551,13.0246914 C10.3061224,12.9012346 10.5510204,13.0246914 10.6734694,13.2716049 Z" id="Shape"></path>
            </g>
        </g>
    </g>
</svg>