<?xml version="1.0" encoding="UTF-8"?>
<svg width="57px" height="57px" viewBox="0 0 57 57" version="1.1" xmlns="http://www.w3.org/2000/svg" xmlns:xlink="http://www.w3.org/1999/xlink">
    <!-- Generator: Sketch 49 (51002) - http://www.bohemiancoding.com/sketch -->
    <title>小程序-按下</title>
    <desc>Created with Sketch.</desc>
    <defs></defs>
    <g id="Symbols" stroke="none" stroke-width="1" fill="none" fill-rule="evenodd">
        <g id="应用" transform="translate(-418.000000, -215.000000)" fill="#91E457" fill-rule="nonzero">
            <g id="Group-12">
                <g id="小程序-按下" transform="translate(418.000000, 215.000000)">
                    <path d="M28.5,0 C12.7595545,0 0,12.760277 0,28.5004655 C0,44.2406539 12.7595545,57 28.5,57 C44.2404455,57 57,44.2406539 57,28.5004655 C57,12.760277 44.2404455,0 28.5,0 Z M45.3082413,26.0874913 C44.0486705,28.1550899 41.9531097,29.7395352 39.4432776,30.4693854 C39.3799732,30.4880041 39.3175998,30.5075536 39.2542955,30.5243104 C38.8711474,30.6374214 38.4742523,30.6972522 38.0747861,30.7021183 C36.3357778,30.7021183 35.3536291,29.5272829 35.8814758,28.0787535 C36.2668877,27.0193536 37.2797576,26.1247285 38.5160547,25.710464 C40.4319429,25.0122654 41.7706441,23.4185108 41.7706442,21.5640955 C41.7706442,19.0654755 39.3399425,17.0406997 36.3422944,17.0406997 C33.3437153,17.0406997 30.9139446,19.0664064 30.9139446,21.5640955 L30.9139446,35.4368355 C30.9139446,38.7732937 28.9812994,41.6992112 26.0888483,43.3534763 C24.435212,44.2959224 22.5638451,44.789511 20.6604985,44.7852488 C15.0059287,44.7852488 10.4061214,40.5914028 10.4061214,35.4359046 C10.4061214,33.7956034 10.8753185,32.253981 11.6926896,30.9125088 C12.9578461,28.8356008 15.0664402,27.2455699 17.5920984,26.5203743 L17.5986151,26.5185125 C18.0199958,26.3851088 18.4590252,26.3157564 18.9010093,26.3127766 C20.6474652,26.3127766 21.6342686,27.4931977 21.10456,28.9482435 C20.7452146,29.9340998 19.7788921,30.7840402 18.6515157,31.2364729 C18.5181035,31.2811074 18.3864348,31.3307929 18.2567943,31.3854219 C16.4665839,32.1245815 15.2321487,33.6587564 15.2321487,35.4368355 C15.2321487,37.9354555 17.6628503,39.9602313 20.6604985,39.9602313 C23.6581466,39.9602313 26.0888483,37.9345245 26.0888483,35.4368355 L26.0888483,21.5640955 C26.0888483,18.2276373 28.0214935,15.3017198 30.9139446,13.6474546 C32.5675808,12.7050086 34.4389478,12.2114199 36.3422944,12.2156821 C41.9959332,12.2156821 46.5966714,16.4095281 46.5966714,21.5650264 C46.5927119,23.1625182 46.1467815,24.72776 45.3082413,26.0874913 Z" id="Shape"></path>
                </g>
            </g>
        </g>
    </g>
</svg>