<svg id="图层_1" data-name="图层 1" xmlns="http://www.w3.org/2000/svg" xmlns:xlink="http://www.w3.org/1999/xlink" viewBox="0 0 512 512"><defs><style>.cls-1{fill:none;}.cls-10,.cls-11,.cls-12,.cls-14,.cls-15,.cls-17,.cls-18,.cls-19,.cls-2,.cls-20,.cls-3,.cls-5,.cls-6,.cls-8,.cls-9{stroke:#fff;stroke-miterlimit:10;stroke-width:0.25px;}.cls-2{fill:url(#未命名的渐变_6);}.cls-3{fill:url(#未命名的渐变_7);}.cls-4{fill:url(#未命名的渐变_8);}.cls-5{fill:url(#未命名的渐变_6-2);}.cls-6{fill:url(#未命名的渐变_6-3);}.cls-7{fill:url(#未命名的渐变_6-4);}.cls-8{fill:url(#未命名的渐变_6-5);}.cls-9{fill:url(#未命名的渐变_6-6);}.cls-10{fill:url(#未命名的渐变_6-7);}.cls-11{fill:url(#未命名的渐变_6-8);}.cls-12{fill:url(#未命名的渐变_6-9);}.cls-13{fill:url(#未命名的渐变_6-10);}.cls-14{fill:url(#未命名的渐变_6-11);}.cls-15{fill:url(#未命名的渐变_6-12);}.cls-16{fill:url(#未命名的渐变_6-13);}.cls-17{fill:url(#未命名的渐变_6-14);}.cls-18{fill:url(#未命名的渐变_6-15);}.cls-19{fill:url(#未命名的渐变_6-16);}.cls-20{fill:url(#未命名的渐变_6-17);}.cls-21{fill:#fff;}</style><linearGradient id="未命名的渐变_6" x1="396.13" y1="-62.23" x2="-63.23" y2="397.13" gradientUnits="userSpaceOnUse"><stop offset="0" stop-color="#fff"/><stop offset="0.03" stop-color="#cfe878"/><stop offset="1" stop-color="#46ca77"/></linearGradient><linearGradient id="未命名的渐变_7" x1="512.44" y1="54.08" x2="53.08" y2="513.45" gradientUnits="userSpaceOnUse"><stop offset="0" stop-color="#fff"/><stop offset="0" stop-color="#cfe878"/><stop offset="1" stop-color="#46ca77"/></linearGradient><linearGradient id="未命名的渐变_8" x1="447.72" y1="-10.64" x2="-11.64" y2="448.72" xlink:href="#未命名的渐变_7"/><linearGradient id="未命名的渐变_6-2" x1="466.3" y1="7.93" x2="6.93" y2="467.3" xlink:href="#未命名的渐变_6"/><linearGradient id="未命名的渐变_6-3" x1="496.32" y1="37.95" x2="36.95" y2="497.32" xlink:href="#未命名的渐变_6"/><linearGradient id="未命名的渐变_6-4" x1="572.06" y1="113.7" x2="112.7" y2="573.06" xlink:href="#未命名的渐变_6"/><linearGradient id="未命名的渐变_6-5" x1="436.33" y1="-22.03" x2="-23.03" y2="437.33" xlink:href="#未命名的渐变_6"/><linearGradient id="未命名的渐变_6-6" x1="576.32" y1="117.96" x2="116.96" y2="577.32" xlink:href="#未命名的渐变_6"/><linearGradient id="未命名的渐变_6-7" x1="357.26" y1="-101.1" x2="-102.1" y2="358.26" xlink:href="#未命名的渐变_6"/><linearGradient id="未命名的渐变_6-8" x1="461.19" y1="2.82" x2="1.82" y2="462.19" xlink:href="#未命名的渐变_6"/><linearGradient id="未命名的渐变_6-9" x1="598.47" y1="140.11" x2="139.11" y2="599.47" xlink:href="#未命名的渐变_6"/><linearGradient id="未命名的渐变_6-10" x1="625.73" y1="167.37" x2="166.37" y2="626.73" xlink:href="#未命名的渐变_6"/><linearGradient id="未命名的渐变_6-11" x1="546.36" y1="87.99" x2="86.99" y2="547.36" xlink:href="#未命名的渐变_6"/><linearGradient id="未命名的渐变_6-12" x1="335.81" y1="-122.56" x2="-123.56" y2="336.81" xlink:href="#未命名的渐变_6"/><linearGradient id="未命名的渐变_6-13" x1="365.64" y1="-92.72" x2="-93.72" y2="366.64" xlink:href="#未命名的渐变_6"/><linearGradient id="未命名的渐变_6-14" x1="665.74" y1="207.38" x2="206.38" y2="666.74" xlink:href="#未命名的渐变_6"/><linearGradient id="未命名的渐变_6-15" x1="680.37" y1="222" x2="221" y2="681.37" xlink:href="#未命名的渐变_6"/><linearGradient id="未命名的渐变_6-16" x1="271.02" y1="-187.34" x2="-188.34" y2="272.02" xlink:href="#未命名的渐变_6"/><linearGradient id="未命名的渐变_6-17" x1="282.17" y1="-176.2" x2="-177.2" y2="283.17" xlink:href="#未命名的渐变_6"/></defs><title>xpc</title><polygon class="cls-1" points="164.68 551.64 234.62 511.75 141.11 511.75 164.68 551.64"/><polygon class="cls-1" points="510.75 188.31 510.75 354.22 584.08 312.39 510.75 188.31"/><polygon class="cls-2" points="280.28 115.81 420.6 35.76 399.31 -0.25 211.69 -0.25 280.28 115.81"/><path class="cls-3" d="M500.86,171.58l9.89-5.64V89.61a89.83,89.83,0,0,0-46.53-78.74L420.6,35.76Z"/><path class="cls-4" d="M464.22,10.87A89.5,89.5,0,0,0,420.89-.25H399.31l21.29,36Z"/><polygon class="cls-5" points="141.04 195.24 221.31 331.06 360.55 251.63 280.28 115.81 141.04 195.24"/><polygon class="cls-6" points="280.28 115.81 360.55 251.63 500.86 171.58 420.6 35.76 280.28 115.81"/><polygon class="cls-7" points="510.75 188.31 510.75 165.94 500.86 171.58 510.75 188.31"/><polygon class="cls-8" points="1.2 275.02 81.47 410.84 221.31 331.06 141.04 195.24 1.2 275.02"/><polygon class="cls-9" points="304.52 471.87 443.76 392.44 360.55 251.63 221.31 331.06 304.52 471.87"/><polygon class="cls-10" points="141.04 195.24 280.28 115.81 211.69 -0.25 159.52 -0.25 59.3 56.92 141.04 195.24"/><path class="cls-11" d="M38.93,435.11l42.54-24.27L1.2,275l-2.45,1.4V421.89a89.86,89.86,0,0,0,89.86,89.86h52.5L81.47,410.84Z"/><polygon class="cls-12" points="500.86 171.58 360.55 251.63 443.76 392.44 510.75 354.22 510.75 188.31 500.86 171.58"/><polygon class="cls-13" points="234.62 511.75 328.09 511.75 304.52 471.87 234.62 511.75"/><polygon class="cls-14" points="221.31 331.06 81.47 410.84 141.11 511.75 234.62 511.75 304.52 471.87 221.31 331.06"/><polygon class="cls-15" points="141.04 195.24 59.3 56.92 -1.25 91.47 -1.25 270.87 1.2 275.02 141.04 195.24"/><polygon class="cls-16" points="-1.25 270.87 -1.25 276.42 1.2 275.02 -1.25 270.87"/><path class="cls-17" d="M304.52,471.87l23.57,39.88h92.8a89.75,89.75,0,0,0,72-36.12l-49.16-83.19Z"/><path class="cls-18" d="M492.92,475.63a89.47,89.47,0,0,0,17.83-53.74V354.22l-67,38.22Z"/><path class="cls-19" d="M35.69,17A89.72,89.72,0,0,0-1.25,89.61v1.86L59.3,56.92Z"/><path class="cls-20" d="M159.52-.25H88.61A89.49,89.49,0,0,0,35.69,17L59.3,56.92Z"/><path class="cls-21" d="M186.09,229.23H164.45l-47.59-64v64H94.26V134.5h22.6l46.63,65.33V134.5h22.6Z"/><path class="cls-21" d="M283.06,229.23h-78.7v-94.3h78.7v14.26H227.44v23.4H283v17.24h-55.6v26h55.62Z"/><path class="cls-21" d="M427.93,134.93l-22.6,94.3H378.89L361.1,160.89l-18.27,68.34H314.94l-22.6-94.3H315.9l14.43,72.26,17.3-72.26h26l18.27,72.26,13-72.26Z"/><path class="cls-21" d="M220.16,378.27H188.29V340.73H133.76v4.13q2.13,26.63-46.74,35.8V368.27q14.16-5,13.46-17.9V265.08h33.28v36.63h41.78V264h29.75v37.75H241.4v13.77H133.76V327h86.4Z"/><path class="cls-21" d="M392.24,359.09v-35.8h-4.95q0,39.93-41.08,55.54V365.52q14.16-13.77,15.58-42.23h-9.91q-1.42,39.48-42.49,55.54V365.52a5.85,5.85,0,0,0,1.41-1.38,11.08,11.08,0,0,1,2.13-2.3,276.33,276.33,0,0,1-51.7,6.89V354.5q2.13,0,7.08-.46h6.38V304.93h-12V291.61h12v-26h29v26h10.63v13.32H303.72v45.44l8.5-1.38,2.83-.92v11.48q10.63-14.22,10.63-36.26h-8.5v-12.4A314.11,314.11,0,0,0,366,291.15h-43.2V278.3L414.91,277v13.31c-19,6.89-35.89,15.81-52.41,20.09h58.07V360Q422,378.36,393,377.45H374.54V365.52H383Q392.94,366,392.24,359.09Z"/></svg>